<svg xmlns="http://www.w3.org/2000/svg" xmlns:xlink="http://www.w3.org/1999/xlink" width="466.017" height="529.825" viewBox="0 0 466.017 529.825">
  <defs>
    <linearGradient id="linear-gradient" x1="0.465" y1="1.158" x2="0.553" y2="0.019" gradientUnits="objectBoundingBox">
      <stop offset="0" stop-color="#34239e"/>
      <stop offset="0.99" stop-color="#3d2389"/>
    </linearGradient>
    <linearGradient id="linear-gradient-2" x1="-0.902" y1="0.5" x2="14.768" y2="0.5" gradientUnits="objectBoundingBox">
      <stop offset="0.01" stop-color="#e1a898"/>
      <stop offset="0.99" stop-color="#e5867a"/>
    </linearGradient>
    <linearGradient id="linear-gradient-3" x1="0.395" y1="0.021" x2="0.729" y2="1.027" gradientUnits="objectBoundingBox">
      <stop offset="0.01" stop-color="#e2295f"/>
      <stop offset="1" stop-color="#f15271"/>
    </linearGradient>
    <linearGradient id="linear-gradient-4" x1="0.474" y1="1.14" x2="0.511" y2="0.018" gradientUnits="objectBoundingBox">
      <stop offset="0" stop-color="#e1a898"/>
      <stop offset="0.01" stop-color="#954940"/>
      <stop offset="0.99" stop-color="#763826"/>
      <stop offset="1" stop-color="#e5867a"/>
    </linearGradient>
    <linearGradient id="linear-gradient-5" x1="0.959" y1="0.76" x2="-0.481" y2="-0.237" gradientUnits="objectBoundingBox">
      <stop offset="0" stop-color="#e1a898"/>
      <stop offset="0.01" stop-color="#763826"/>
      <stop offset="0.99" stop-color="#954940"/>
      <stop offset="1" stop-color="#e5867a"/>
    </linearGradient>
    <linearGradient id="linear-gradient-6" x1="0.029" y1="0.803" x2="0.974" y2="0.243" gradientUnits="objectBoundingBox">
      <stop offset="0.01" stop-color="#0389c0"/>
      <stop offset="0.99" stop-color="#0071ae"/>
    </linearGradient>
    <linearGradient id="linear-gradient-7" x1="0" y1="0.5" x2="1" y2="0.5" xlink:href="#linear-gradient-5"/>
    <linearGradient id="linear-gradient-8" x1="0" y1="0.5" x2="1" y2="0.5" xlink:href="#linear-gradient-5"/>
    <linearGradient id="linear-gradient-9" x1="-0.018" y1="0.786" x2="1.395" y2="-0.129" xlink:href="#linear-gradient-4"/>
    <linearGradient id="linear-gradient-10" x1="0" y1="0.5" x2="1" y2="0.5" xlink:href="#linear-gradient-5"/>
    <linearGradient id="linear-gradient-11" x1="0.754" y1="1.04" x2="0.481" y2="0.042" xlink:href="#linear-gradient-5"/>
    <linearGradient id="linear-gradient-12" x1="0" y1="0.5" x2="1" y2="0.5" xlink:href="#linear-gradient-2"/>
    <clipPath id="clip-path">
      <rect id="Rectangle_173" data-name="Rectangle 173" width="83.531" height="62.276" fill="none"/>
    </clipPath>
  </defs>
  <g id="Group_435" data-name="Group 435" transform="translate(-253.983 -0.326)">
    <path id="Path_1051" data-name="Path 1051" d="M835.061,155.784V551.256C823.35,571,799.851,601.637,762.518,628.588c-34.2,24.781-79.956,46.441-140.287,53.855-.046,0,.008.025-.038.025-35.912,4.4-65.722,3.974-90.145-.025-24.76-4.062-43.864-11.77-58-21.8-37.274-26.438-39.827-69.023-18.894-103.333,31.938-52.35-7.872-104.716-41.828-138.656-5.1-5.071-10.021-9.731-14.567-13.9-35.041-32.22-5.425-76.083,38.183-115.158,41.122-36.854-31.988-98.669-67.9-133.812Z" transform="translate(-115.061 -155.458)" fill="#fc9528"/>
    <path id="Path_1052" data-name="Path 1052" d="M556.968,155.784V551.256c-11.711,19.747-35.209,50.382-72.543,77.332,66.9-63.729,69.818-164.358,67.181-278.712-2.367-102.458-45.735-147.234-95.8-194.092Z" transform="translate(163.032 -155.458)" fill="gray"/>
    <path id="Path_1053" data-name="Path 1053" d="M440.316,460.285c-37.266-26.438-39.827-69.023-18.906-103.333,31.942-52.35-7.876-104.716-41.833-138.656,16.5,12.027,35.588,25.773,54.15,44.339,42.236,42.127,25.458,94.889,0,119.922C412.137,403.856,422.511,436.807,440.316,460.285Z" transform="translate(-81.301 44.901)" fill="#ffc843"/>
    <g id="Group_429" data-name="Group 429" transform="translate(382.623 147.561)">
      <path id="Path_1054" data-name="Path 1054" d="M557.451,198.581V435.872a7.786,7.786,0,0,1-7.813,7.771H423.375a7.789,7.789,0,0,1-7.813-7.771V198.581a7.8,7.8,0,0,1,7.813-7.784H549.638A7.8,7.8,0,0,1,557.451,198.581Z" transform="translate(-348.588 -190.797)" fill="#80a4ff"/>
      <path id="Path_1055" data-name="Path 1055" d="M557.451,198.581V420.986L415.562,246.015V198.581a7.8,7.8,0,0,1,7.813-7.784H549.638A7.8,7.8,0,0,1,557.451,198.581Z" transform="translate(-348.588 -190.797)" fill="#94b1ff"/>
      <rect id="Rectangle_186" data-name="Rectangle 186" width="126.905" height="197.535" transform="translate(74.467 27.986)" fill="#a4bfff"/>
      <path id="Path_1056" data-name="Path 1056" d="M544.249,197.452V391.706L417.344,233.828V197.452Z" transform="translate(-342.877 -169.466)" fill="#b8c9ff"/>
      <g id="Group_419" data-name="Group 419" transform="translate(129.853 12.868)">
        <path id="Path_1057" data-name="Path 1057" d="M446.65,195.068a1.206,1.206,0,0,1-1.207,1.2H431.722a1.206,1.206,0,0,1-1.207-1.2h0a1.208,1.208,0,0,1,1.207-1.211h13.721a1.208,1.208,0,0,1,1.207,1.211Z" transform="translate(-430.515 -193.857)" fill="#7697e9"/>
      </g>
      <path id="Path_1058" data-name="Path 1058" d="M468.555,254.381a2,2,0,0,0-.538-.105c-.942-.08-5.269.862-8.923,2.414-2.872,1.228-5.336,2.83-5.416,4.621-.156,2.893,11.53-.421,14.34-2.817C470.527,256.37,469.9,254.8,468.555,254.381Z" transform="translate(-226.429 12.645)" fill="#e8a628"/>
      <path id="Path_1059" data-name="Path 1059" d="M469.439,255.908c-2.073-1.034-8.52-2.006-8.7-.555.008.084.008.147.017.214a1.394,1.394,0,0,0,.252.353c1.615,1.8,9.777,5.854,11.669,4.84C474.788,259.63,471.555,256.968,469.439,255.908Z" transform="translate(-203.79 13.758)" fill="#e8a628"/>
      <path id="Path_1060" data-name="Path 1060" d="M451,257.461s2.818-12.8,4.218-18.3c1.409-5.475,3.1-10.546,5.071-9.7s6.611,5.765,6.611,5.765l.147-25.47c-2.119-2.384-7.329-4.924-19.991-5.2-12.662-.294-31.088,4.5-36.862,8.154s-5.067,9.853-6.467,14.777a132.125,132.125,0,0,0-4.079,30.395,109.6,109.6,0,0,0,1.548,19.693c.084.458.139.706.139.706a59.017,59.017,0,0,0,23.216,5.769c13.5.563,22.653-3.658,22.653-3.658s1.118-9.991,1.686-11.543c0,0,24.688,5.917,29.3,5.286l.74-8.444S456.479,259.711,451,257.461Z" transform="translate(-399.635 -146.723)" fill="url(#linear-gradient)"/>
      <path id="Path_1061" data-name="Path 1061" d="M405.566,201.72l-.059.034c.286.736.707,1.712,1.236,2.775l.038-.029Z" transform="translate(-380.816 -155.787)" fill="url(#linear-gradient-2)"/>
      <path id="Path_1062" data-name="Path 1062" d="M408.595,202.223l-.059.034a2.53,2.53,0,0,1-.261.118,1.9,1.9,0,0,1-2.162-.812,2.05,2.05,0,0,0-1.442,2.754c.757,2.889,4.617.967,5.1.715l.038-.029Z" transform="translate(-383.844 -156.291)" fill="#954940"/>
      <path id="Path_1063" data-name="Path 1063" d="M407.136,200.724c-1.8,1.745-3.427,6-2.506,10.277a13.413,13.413,0,0,0,2.119,5.353,1.9,1.9,0,0,0,2.162.812,2.52,2.52,0,0,0,.261-.118l.059-.034c1.745-1.034.812-4.584,1.278-7.388.631-3.709,3.028-5.593,6.682-5.484a37.5,37.5,0,0,0,6.728.029c1.438-.252,2.51-.828,2.746-2.082C427.24,199.117,415.134,192.949,407.136,200.724Z" transform="translate(-384.479 -171.082)" fill="#b93504"/>
      <path id="Path_1064" data-name="Path 1064" d="M513.135,354.576c.639-.643,3.385-44.541,3.385-62.476,0-9.323.3-25.689-.849-40.87a217.727,217.727,0,0,0-3.478-25.508,121.445,121.445,0,0,1-19.949,1.8c-6.985-.08-17.17-3.507-17.708-3.684l-.652.942c-2.119,3.579-14.844,28.069-19.281,35.449s-9.213,18.578-6.892,29.129,12.662,29.343,18.141,39.469c5.235,9.651,13.5,24.053,14.3,25.42,3.654-1.552,7.981-2.494,8.923-2.414a2.005,2.005,0,0,1,.538.105c-.82-2.574-6.589-20.735-10.24-30.916-3.511-9.777-11.821-24.907-12.249-32.506s5.282-17.1,10.139-23.851,13.288-15.828,14.773-14.562,4.857,24.907,6.539,42.846c1.581,16.762,5.374,55.987,5.862,61.075C504.616,352.57,511.062,353.541,513.135,354.576Z" transform="translate(-247.485 -84.909)" fill="url(#linear-gradient-3)"/>
      <path id="Path_1065" data-name="Path 1065" d="M460.777,255.185l.219.013a1.394,1.394,0,0,1-.252-.353C460.768,255.063,460.777,255.185,460.777,255.185Z" transform="translate(-203.777 14.482)" fill="#f34e3d"/>
      <path id="Path_1066" data-name="Path 1066" d="M460.733,254.852a.411.411,0,0,0,.042.156c-.009-.067-.009-.13-.017-.214Z" transform="translate(-203.809 14.319)" fill="#072d36"/>
      <path id="Path_1067" data-name="Path 1067" d="M407.709,204.2c0,2.582-.307,5.219.732,5.593,1.161.425,1.9-1.055,2-2.742.071-1.034.059-2.216.034-2.977A8.144,8.144,0,0,1,407.709,204.2Z" transform="translate(-373.893 -148.236)" fill="url(#linear-gradient-4)"/>
      <path id="Path_1068" data-name="Path 1068" d="M424.328,211.13a30.318,30.318,0,0,1-.235,4.214,5.727,5.727,0,0,1-.458,1.7,8.908,8.908,0,0,1-6.463,4.891,8.661,8.661,0,0,1-2.99.143,6.012,6.012,0,0,1-1.627-.463c-2.334-1.1-4.474-4.466-5.862-7.279.034-.008.038-.025.038-.025l-1.207-2.78c1.732-1.026.786-4.575,1.27-7.388.631-3.7,3.019-5.584,6.682-5.484a38.708,38.708,0,0,0,6.728.029c1.148.946,1.615,2.4,2.3,3.856A21.739,21.739,0,0,1,424.328,211.13Z" transform="translate(-380.764 -165.601)" fill="url(#linear-gradient-5)"/>
      <path id="Path_1069" data-name="Path 1069" d="M493.939,355.42c-1.426-4.293-12.582-37.943-17.725-52.026-5.475-15.059-29.962-78.661-29.962-78.661s-9.155,4.222-22.653,3.658a59.016,59.016,0,0,1-23.216-5.769s-.055-.248-.139-.706h-.008c-.837,4.365,0,15.483,3.1,29.272s6.333,25.042,8.583,33.767,3.52,11.964,3.1,22.09-8.309,47.417-8.171,50.655c.669-1.169,4.487.227,7.914,2.086,2.515-4.811,14.272-33.549,17.275-45.71,3.511-14.209,2.956-25.744.993-39.81s-5.353-25.046-4.369-25.613,18.3,29.827,24.478,40.811c6.2,10.963,17.313,34.469,22.371,45.306,4.735,10.092,8.6,19.457,9.1,20.681a1.813,1.813,0,0,1,.622-.282A24.312,24.312,0,0,1,493.939,355.42Z" transform="translate(-398.689 -91.06)" fill="#2e0235"/>
      <path id="Path_1070" data-name="Path 1070" d="M430.1,254.077a24.311,24.311,0,0,0-8.713-.252,1.813,1.813,0,0,0-.622.282c-1.333.955-1.5,3.726,1.463,4.226,3.381.559,13.372.135,13.229-1.838C435.387,255.519,433.011,254.619,430.1,254.077Z" transform="translate(-334.851 10.283)" fill="#4aabff"/>
      <path id="Path_1071" data-name="Path 1071" d="M409.814,256.618c-3.427-1.859-7.245-3.255-7.914-2.086-1.236,2.212.29,4.087,3.658,5.492s9.575,3.091,9.991,1.257C415.751,260.411,412.942,258.321,409.814,256.618Z" transform="translate(-393.743 12.107)" fill="#4aabff"/>
      <path id="Path_1072" data-name="Path 1072" d="M409.286,207.9c1.568,0,2-2,1.144-3.772s-2.633-2.632-3.768-1.2S407.233,207.9,409.286,207.9Z" transform="translate(-378.29 -154.218)" fill="#954940"/>
      <path id="Path_1073" data-name="Path 1073" d="M412.487,201.888a30.327,30.327,0,0,1-.235,4.214,5.726,5.726,0,0,1-.458,1.7,2.534,2.534,0,0,1-1.308-.164c-1.48-.572-1.657-4.1-.568-5.425A1.911,1.911,0,0,1,412.487,201.888Z" transform="translate(-368.923 -156.359)" fill="#954940"/>
      <path id="Path_1074" data-name="Path 1074" d="M406.785,202.866c-.538-.067.728-1.9,2.136-2.128s2.435,1.64,2.2,1.943-.837-.955-1.48-.988c0,0,.269,1.287-.567,1.552s-.807-1.472-.807-1.472a2.175,2.175,0,0,0-.719.605C407.29,202.757,407.055,202.908,406.785,202.866Z" transform="translate(-377.124 -158.994)" fill="#37140f"/>
      <path id="Path_1075" data-name="Path 1075" d="M405.334,201.923l.219.307a7.225,7.225,0,0,0,.5.631,3.156,3.156,0,0,0,.542.513,2.613,2.613,0,0,1,.282.164l.071.046a.222.222,0,0,1,.051.311.218.218,0,0,1-.193.093,3.756,3.756,0,0,1-.475-.084,4.6,4.6,0,0,1-.412-.223,4.532,4.532,0,0,1-.4-.357,3.232,3.232,0,0,1-.492-.816,2.134,2.134,0,0,1-.118-.408v0a.241.241,0,0,1,.189-.273A.236.236,0,0,1,405.334,201.923Z" transform="translate(-382.732 -155.469)" fill="#e17269"/>
      <path id="Path_1076" data-name="Path 1076" d="M406.379,205.982s.034-.118.105-.353a5.252,5.252,0,0,1,.433-1.022,4.208,4.208,0,0,1,1.144-1.354,3.5,3.5,0,0,1,2.313-.589c.193.038.4.063.593.088a4.441,4.441,0,0,1,.711.244,2.3,2.3,0,0,1,1.047,1.1,14.809,14.809,0,0,1,.7,2.8,26.625,26.625,0,0,0,.769,2.868,8.059,8.059,0,0,0,.61,1.358,1.532,1.532,0,0,0,.4.5c.034.025.059.038.076.029,0,0,.059.008,0,.025l.088-.029c-.055.025.042-.05.059-.143a4.274,4.274,0,0,0,.088-1.434c-.021-.5-.063-1.009-.13-1.522-.126-1-.29-2-.391-2.981a15.534,15.534,0,0,1-.08-2.889,3.554,3.554,0,0,1,1.224-2.561,2.829,2.829,0,0,1,1.245-.5,3.022,3.022,0,0,1,.66-.017,2.47,2.47,0,0,1,.572.139,3.439,3.439,0,0,1,1.5,1.093,3.941,3.941,0,0,1,.6.942,2.3,2.3,0,0,1,.155.374.232.232,0,0,1-.4.223l-.008-.013-.235-.261a7,7,0,0,0-.707-.694,3.4,3.4,0,0,0-1.215-.706,3.476,3.476,0,0,0-.374-.08,2.729,2.729,0,0,0-.383.017,1.724,1.724,0,0,0-.8.3,2.6,2.6,0,0,0-.883,1.859,15.9,15.9,0,0,0-.084,2.717c.038.955.151,1.96.219,2.99.038.509.08,1.026.1,1.56a4.76,4.76,0,0,1-.181,1.636.722.722,0,0,1-.408.454.512.512,0,0,1-.105.025.841.841,0,0,1-.2-.008.557.557,0,0,1-.273-.105,1.908,1.908,0,0,1-.589-.673,7.4,7.4,0,0,1-.656-1.447,29.291,29.291,0,0,1-.9-2.9,14.732,14.732,0,0,0-.749-2.6,1.742,1.742,0,0,0-.727-.732c-.147-.067-.315-.092-.458-.16-.2-.017-.4-.05-.593-.072a3.086,3.086,0,0,0-1.737.429,4.352,4.352,0,0,0-1.034,1.055,7.1,7.1,0,0,0-.521.854c-.118.214-.177.336-.177.336a.228.228,0,0,1-.416-.181Z" transform="translate(-378.063 -162.576)" fill="#ad6752"/>
      <path id="Path_1077" data-name="Path 1077" d="M408.675,203.573a.417.417,0,0,0,.1.034,1.237,1.237,0,0,1,.164-.013,1.746,1.746,0,0,0,.294,0,3.006,3.006,0,0,0,.336-.034c.046-.008.093-.042.139-.055a.416.416,0,0,0,.147-.03,2.138,2.138,0,0,1,.252-.105,1.108,1.108,0,0,1,.286-.139l.08-.017a.245.245,0,0,1,.294.164.276.276,0,0,1,0,.118,1.513,1.513,0,0,1-.206.4,1,1,0,0,1-.357.307,1.237,1.237,0,0,1-.513.172,1.621,1.621,0,0,1-.946-.156,1.8,1.8,0,0,1-.307-.206l-.067-.088a.225.225,0,0,1,.059-.324.25.25,0,0,1,.2-.038Z" transform="translate(-371.776 -151.034)" fill="#df2d0c"/>
      <path id="Path_1078" data-name="Path 1078" d="M408.758,202.28c-.345-.1.791-2.018,1.939-2.052s2.056,1.674,1.859,1.976-.685-.913-1.06-.992c0,0,.189,1.257-.572,1.64s-.765-1.64-.765-1.64a1.693,1.693,0,0,0-.795.61C408.985,202.318,409.019,202.355,408.758,202.28Z" transform="translate(-370.597 -160.573)" fill="#37140f"/>
      <path id="Path_1082" data-name="Path 1082" d="M532.086,227.9c-1.514-7.687-4.041-19.436-29.692-20.681-24.478-1.2-29.44,2.073-31.875,3.974-1.791,1.413-7.237,6.859-8.082,18.957-.656,9.39-1.829,20.117-5.358,22.8a19.4,19.4,0,0,1-7.51,3.381s-.572,2.6-1.131,5a12.179,12.179,0,0,1-1.4,3.658,24.045,24.045,0,0,0,10.046,1.19,52.388,52.388,0,0,0,7.048-.988s7.018,2.216,10.3,2.515c.13.008.261.021.387.025v.433l-.072,9.735.025.008c.538.177,10.715,3.6,17.708,3.684a121.447,121.447,0,0,0,19.949-1.8l-.164-1.8-.824-9.562-.034-.425s.13-.05.383-.16c1.85-.782,10.164-4.541,15.647-11.228C533.907,248.731,533.907,237.192,532.086,227.9Zm-61.071,28.713s.29-1.972.984-5.076c.711-3.095.286-10.975.572-11.539s1.964,3.1,2.246,4.365c.273,1.215.151,8.086.143,11.4v.416l-.4.05Zm44.192-18.73c-.345,3.848-1.77,6.69-3.419,8.179a5.055,5.055,0,0,1-1.228.837s-.034-.257-.08-.7a56.822,56.822,0,0,1-.2-6.749c.13-4.1,0-7.182,1.686-8.032C514.277,230.275,515.627,233.117,515.207,237.886Z" transform="translate(-247.719 -138.977)" fill="url(#linear-gradient-6)"/>
      <path id="Path_1094" data-name="Path 1094" d="M455.5,234.4c-2.893-1.409-4.853-3.036-8.1-6.543-3.373-3.663-5.833-4.365-5.341-5.067s5.441,1.775,5,.706c-.358-.845-3.877-3.028-4.087-4.432-.139-.971,1.114-.614,3.381,1.337,1.539,1.333,2.67,2.25,3.1,1.611s-5.248-5.025-4.508-5.975,7.351,5.946,7.88,5.631-4.529-5.908-2.956-5.908c1.59,0,4.727,5.975,5.769,6.19,1.06.21-.13-3.843,1.131-2.885s1.026,5.441,1.476,6.047c1.619,2.182,7.6,2.952,7.6,2.952s-1.442,7.111-2.611,8.793A44.25,44.25,0,0,1,455.5,234.4Z" transform="translate(-263.854 -110.787)" fill="url(#linear-gradient-7)"/>
      <path id="Path_1095" data-name="Path 1095" d="M461.2,222.157c-2.052-.912-5.5-4.748-6.871-5.383s-2.636.105-.837,1.9,1.8,2.325,1.686,2.641-3.911-3.061-5.282-3.806-3.057-.631-2.321.32,4.23,3.171,4.012,3.7-5.7-3.061-6.123-2.006,4.335,2.843,4.432,3.486c.109.627-3.907-1.69-3.907-.324s3.377,2.75,3.377,2.75-2.628-.959-2.107.307,6.867,3.486,11.089,5.277a63.269,63.269,0,0,0,8.541,2.86l.538-9.928A28.415,28.415,0,0,1,461.2,222.157Z" transform="translate(-252.838 -108.253)" fill="url(#linear-gradient-8)"/>
      <path id="Path_1107" data-name="Path 1107" d="M492.385,234.824a5.043,5.043,0,0,1-.223.795,2.212,2.212,0,0,1-.1.231c-.841,2.082-2.1,4.626-4.449,5.538a5.7,5.7,0,0,1-.61.189H487a4.959,4.959,0,0,1-.866.147,12.355,12.355,0,0,1-1.892.013,4.776,4.776,0,0,1-.6-.046,14.542,14.542,0,0,1-5.109-1.371,7.683,7.683,0,0,1-.845-.576,2.589,2.589,0,0,0-1.051-.517,1.889,1.889,0,0,0-1.581.563,3.2,3.2,0,0,1-5.2-2.473c-.13-3.267,1.2-4.537.6-6.871s-1.6-2.738-1.531-4.205c0-.088,0-.231-.008-.4.16-.164.332-.345.479-.526.332-.425.643-.849.929-1.3.206-.294.391-.585.555-.875v-.013a25.69,25.69,0,0,0,2.321-5.324s-3.713-2.1-3.806-5.017c-.025-.433-.034-.9-.063-1.371v0c-.025-.559-.067-1.127-.135-1.695a11.674,11.674,0,0,0-.471-2.246,4.175,4.175,0,0,0-.261-.656,4.365,4.365,0,0,0-1.977-2.224,16.476,16.476,0,0,0-7.174-1.337,5.83,5.83,0,0,0-.643.029,2.346,2.346,0,0,0-1.085.488v-.013l-.017,0c-.854-.875,4.083-4.937,9.76-4.613,5.669.341,10.206,3.406,10.471,7.145s-.4,6.808,1.543,9.007c1.913,2.2,9.865,8.213,11.61,11.551C492.431,229.735,492.945,232.523,492.385,234.824Z" transform="translate(-214.28 -164.119)" fill="#0e121f"/>
      <g id="Group_422" data-name="Group 422" transform="translate(243.299 36.742)">
        <path id="Path_1108" data-name="Path 1108" d="M492.3,233.5a5.06,5.06,0,0,1-.223.795c-.072-.219-.147-.454-.227-.711-.235-.723-.521-1.585-.912-2.553-.189-.5-.425-.98-.66-1.5-.126-.257-.286-.521-.437-.791l-.118-.206a1.065,1.065,0,0,0-.114-.172l-.29-.374c-.193-.248-.387-.5-.585-.765a7.419,7.419,0,0,0-.707-.7,10.9,10.9,0,0,0-1.644-1.32c-1.177-.87-2.527-1.682-3.776-2.788a17.763,17.763,0,0,1-3.309-3.869c-.227-.374-.437-.757-.656-1.14-.2-.391-.379-.795-.572-1.194-.206-.416-.32-.812-.488-1.22l-.433-1.219a31.167,31.167,0,0,0-2.094-4.621c-.383-.744-.849-1.434-1.287-2.14-.467-.66-.9-1.35-1.409-1.951a21.5,21.5,0,0,0-1.535-1.779c-.257-.286-.53-.564-.79-.833-.236-.223-.517-.471-.786-.694a6.852,6.852,0,0,0-3.621-1.3,10.471,10.471,0,0,0-3.356.324,17.6,17.6,0,0,0-2.51.891,4.278,4.278,0,0,0-.538.256,5.83,5.83,0,0,0-.643.029,2.346,2.346,0,0,0-1.085.488v-.013c.059-.05.219-.168.475-.366a16.143,16.143,0,0,1,1.522-.942,13.874,13.874,0,0,1,2.565-1.081,10.474,10.474,0,0,1,3.621-.492,7.858,7.858,0,0,1,4.155,1.43c.311.244.589.5.912.786.261.282.526.559.791.858.538.538,1.051,1.194,1.573,1.829.522.652.963,1.346,1.455,2.039.437.728.925,1.43,1.308,2.212a32.437,32.437,0,0,1,2.136,4.764l.437,1.207a10.58,10.58,0,0,0,.45,1.194c.177.378.332.757.538,1.118l.6,1.1a17.66,17.66,0,0,0,3.1,3.738c1.161,1.055,2.5,1.88,3.692,2.788a12.838,12.838,0,0,1,1.686,1.417,6.487,6.487,0,0,1,.727.761c.2.282.4.563.6.833.105.13.189.265.286.4a1.774,1.774,0,0,1,.139.206l.118.21c.143.282.29.542.421.816.235.551.475,1.081.635,1.577.374.992.652,1.888.854,2.611A.076.076,0,0,1,492.3,233.5Z" transform="translate(-457.493 -199.534)" fill="#22283a"/>
        <path id="Path_1109" data-name="Path 1109" d="M479.962,232.934a9.277,9.277,0,0,1-.324,1.278c-.1.4-.223.757-.328,1.068-.021.08-.059.168-.072.244a5.7,5.7,0,0,1-.61.189c.055-.177.1-.37.16-.58.088-.32.189-.677.269-1.068a12.079,12.079,0,0,0,.232-1.249,8.445,8.445,0,0,0,0-2.981c-.059-.261-.126-.534-.2-.812-.084-.261-.206-.534-.307-.807l-.164-.421a3.765,3.765,0,0,0-.215-.387c-.147-.29-.294-.576-.454-.862-.336-.555-.685-1.085-1.068-1.648-.408-.551-.8-1.123-1.24-1.682-.854-1.135-1.775-2.283-2.712-3.461s-1.9-2.368-2.771-3.658a21.739,21.739,0,0,1-1.2-1.993c-.353-.69-.677-1.392-.971-2.086-.6-1.4-1.085-2.8-1.69-4.062a20.23,20.23,0,0,0-1.976-3.52,8.9,8.9,0,0,0-2.721-2.254l-.189-.1-.034-.034-.025-.008-.1-.042c-.135-.059-.257-.114-.379-.16-.189-.071-.362-.16-.53-.235a4.178,4.178,0,0,0-.261-.656c.088.017.173.038.261.063.261.059.5.181.753.265.13.059.256.105.387.156l.109.042.063.029.051.025.185.109A8.783,8.783,0,0,1,464.861,204a19.725,19.725,0,0,1,2.119,3.625c.66,1.316,1.173,2.708,1.762,4.071.294.673.618,1.346.963,2.006a17.788,17.788,0,0,0,1.165,1.926c.845,1.219,1.808,2.41,2.742,3.574.95,1.169,1.884,2.325,2.75,3.469.446.568.833,1.169,1.245,1.732.383.58.774,1.177,1.106,1.741.147.3.294.58.45.862.075.16.143.252.223.446l.177.454c.1.311.236.6.311.9.055.307.13.6.185.9A9.278,9.278,0,0,1,479.962,232.934Z" transform="translate(-449.201 -194.997)" fill="#22283a"/>
        <path id="Path_1110" data-name="Path 1110" d="M475.3,233.662a4.776,4.776,0,0,1-.6-.046c-.088-.53-.227-1.14-.383-1.825-.1-.366-.139-.74-.278-1.156s-.269-.833-.416-1.283a7.661,7.661,0,0,0-1.417-2.418,32.412,32.412,0,0,0-2.346-2.338c-.429-.421-.854-.8-1.287-1.253-.214-.248-.425-.5-.626-.757a8.265,8.265,0,0,1-.547-.828,9.8,9.8,0,0,1-1.043-3.776c-.122-1.27-.1-2.544-.235-3.713a10.907,10.907,0,0,0-.816-3.322c-.13-.244-.252-.5-.391-.723a5.094,5.094,0,0,0-.45-.639,10.569,10.569,0,0,0-1.131-1.123,10.143,10.143,0,0,1-1.775-2.59q-.7-1.407-1.173-2.531v0c-.025-.559-.067-1.127-.135-1.695.45.984,1.077,2.334,1.964,3.869a9.981,9.981,0,0,0,1.682,2.317A13.47,13.47,0,0,1,465.145,209a8.386,8.386,0,0,1,.563.728c.16.261.3.534.454.8a10.527,10.527,0,0,1,.988,3.625c.16,1.262.151,2.5.286,3.713a8.618,8.618,0,0,0,.938,3.352c.16.235.282.488.463.706l.546.627c.425.425.837.841,1.253,1.245.824.82,1.657,1.611,2.372,2.473a7.425,7.425,0,0,1,1.5,2.822c.122.45.236.891.341,1.3s.139.854.215,1.22c.118.778.193,1.438.24,1.989Z" transform="translate(-448.644 -192.785)" fill="#22283a"/>
        <path id="Path_1111" data-name="Path 1111" d="M467.889,221.438a2.589,2.589,0,0,0-1.051-.517c-.181-.252-.374-.534-.58-.824-.584-.807-1.194-1.825-1.863-2.881-.3-.547-.589-1.131-.908-1.72-.151-.3-.307-.6-.462-.9l-.391-.917c-.277-.6-.488-1.253-.715-1.88-.193-.643-.4-1.249-.559-1.859-.173-.618-.332-1.2-.437-1.77s-.219-1.106-.286-1.606c-.051-.3-.088-.58-.114-.854.206-.294.391-.585.555-.875.017.1.029.185.038.282.067.4.147.837.269,1.32.189.963.526,2.065.862,3.242.172.593.4,1.186.589,1.8.235.6.45,1.2.685,1.817l.391.925c.147.29.278.576.425.866.286.563.551,1.152.845,1.69.614,1.068,1.135,2.094,1.682,2.923C467.267,220.378,467.62,220.967,467.889,221.438Z" transform="translate(-447.785 -182.555)" fill="#22283a"/>
      </g>
      <path id="Path_1112" data-name="Path 1112" d="M475.946,214.661a23.868,23.868,0,0,1-3.806,7.51c-.147.181-.32.362-.479.526a8.51,8.51,0,0,1-1.076.967,8.046,8.046,0,0,1-4.214,1.6,9.219,9.219,0,0,1-4.449-.807,7.438,7.438,0,0,1-3.448-3.465,15.669,15.669,0,0,1-1.581-5.134,23.5,23.5,0,0,1-.282-4.205c.1-5.067,1.766-9.592,3.722-11.026a2.346,2.346,0,0,1,1.085-.488c.912-.105,5.117-.105,7.817,1.308,2.7,1.388,2.8,5.307,2.906,8.2C472.233,212.558,475.946,214.661,475.946,214.661Z" transform="translate(-217.033 -160.978)" fill="url(#linear-gradient-9)"/>
      <path id="Path_1113" data-name="Path 1113" d="M463.714,207.922c1.262-.463,2.1-3.4.8-4.205s-1.8-.244-2.33,1.14c-.677,1.732-1.346,3.259-1.346,3.259A7.972,7.972,0,0,0,463.714,207.922Z" transform="translate(-203.472 -150.573)" fill="url(#linear-gradient-10)"/>
      <path id="Path_1114" data-name="Path 1114" d="M459.652,212.265c.412,3.061,2.313,3.377,2.94,2.111.5-.963.791-6.375.9-8.864a8.411,8.411,0,0,1-4.44,1.678C459.139,208.081,459.37,210.293,459.652,212.265Z" transform="translate(-209.187 -143.634)" fill="url(#linear-gradient-11)"/>
      <path id="Path_1115" data-name="Path 1115" d="M463.386,204.881c-.744-.917-4.066-1-4.268,1.8s2.733,2.334,3.738,1.2S464.257,205.94,463.386,204.881Z" transform="translate(-209.019 -147.493)" fill="#763826"/>
      <path id="Path_1116" data-name="Path 1116" d="M458.256,208.993a15.671,15.671,0,0,1-1.581-5.134c1.173-.164,2.153,1.169,2.431,2.506C459.358,207.618,459.114,208.82,458.256,208.993Z" transform="translate(-216.815 -148.977)" fill="#763826"/>
      <path id="Path_1117" data-name="Path 1117" d="M456.759,203.57a1.832,1.832,0,0,1,2.031-1.14c1.379.067,1.573.837,1.842,1.737s0,1.039-.2.938-.139-.87-.7-1.4c-.58-.534-.7-.2-.7-.2s.4,1.1-.538,1.434-1-1.6-1-1.6-.4.8-.673.728S456.629,203.94,456.759,203.57Z" transform="translate(-216.908 -153.524)" fill="#37140f"/>
      <path id="Path_1118" data-name="Path 1118" d="M458.612,204.549c-.252-.383.9-1.93,2.435-1.93a2.5,2.5,0,0,1,2.367,2.1c.236.833.03,1.333-.265,1.3s-.029-.736-.6-1.468a4.319,4.319,0,0,0-1.165-1.068s.366,2.04-.7,2.372-.732-1.838-.732-1.838a4.611,4.611,0,0,0-.841.6C458.814,204.915,458.743,204.755,458.612,204.549Z" transform="translate(-210.717 -152.906)" fill="#37140f"/>
      <path id="Path_1119" data-name="Path 1119" d="M456.82,202.971a2.037,2.037,0,0,1,.273-.269,3.97,3.97,0,0,1,2.725-.829,2.746,2.746,0,0,1,.568.13,1.656,1.656,0,0,1,1.068,1.564,14.067,14.067,0,0,1-.235,2.523c-.105.87-.231,1.8-.366,2.746a23,23,0,0,0-.189,2.931,5.393,5.393,0,0,0,.059.732.9.9,0,0,0,.105.315c.034.084.067.093.16.067a1.292,1.292,0,0,0,.353-.492,6.865,6.865,0,0,0,.269-.7c.328-.95.568-1.947.812-2.927a18.441,18.441,0,0,1,.841-2.881,8.883,8.883,0,0,1,1.434-2.506,3.1,3.1,0,0,1,2.536-1.257l.273.046a3.261,3.261,0,0,1,.345.093,3.612,3.612,0,0,1,.572.286,5.079,5.079,0,0,1,.858.677,7.381,7.381,0,0,1,1.051,1.316,8.19,8.19,0,0,1,.681,1.287.2.2,0,0,1-.122.257.222.222,0,0,1-.231-.059s-.088-.1-.227-.286-.374-.446-.669-.765a12.583,12.583,0,0,0-1.089-1.1,6.465,6.465,0,0,0-.728-.526,2.89,2.89,0,0,0-.387-.185c-.067-.013-.1-.046-.189-.059l-.277-.051a2.446,2.446,0,0,0-1.745.917,8.64,8.64,0,0,0-1.451,2.187,19.618,19.618,0,0,0-1.018,2.738c-.311.959-.576,1.947-.942,2.923-.093.24-.2.479-.311.715a1.928,1.928,0,0,1-.219.349.869.869,0,0,1-.147.168.583.583,0,0,1-.248.135c-.143.025-.1.008-.261-.029a.519.519,0,0,1-.193-.189,1.323,1.323,0,0,1-.13-.412,6.308,6.308,0,0,1-.08-.782c-.029-1.018.055-2.014.1-2.969.084-.963.156-1.888.227-2.767a19.775,19.775,0,0,0,.092-2.414,1.166,1.166,0,0,0-.286-.723,1.331,1.331,0,0,0-.358-.206,1.951,1.951,0,0,0-.374-.072,4.305,4.305,0,0,0-1.434.21c-.416.093-.723.235-.913.286-.2.088-.332.168-.324.156a.2.2,0,0,1-.282-.025A.2.2,0,0,1,456.82,202.971Z" transform="translate(-216.565 -155.348)" fill="#aa6d65"/>
      <path id="Path_1120" data-name="Path 1120" d="M461.271,205.1a.674.674,0,0,1-.013-.324,1.3,1.3,0,0,1,.269-.656,2.483,2.483,0,0,1,.273-.282,2.8,2.8,0,0,1,.3-.185,2.019,2.019,0,0,1,.345-.063.2.2,0,0,1,.219.172.216.216,0,0,1-.051.147l-.051.063s-.071.076-.168.168a1.549,1.549,0,0,0-.139.172c-.051.063-.1.139-.156.206a1.378,1.378,0,0,1-.139.24,1.079,1.079,0,0,1-.13.214c-.08.122-.172.206-.172.219a.192.192,0,0,1-.236.151A.208.208,0,0,1,461.271,205.1Z" transform="translate(-202.164 -149.797)" fill="#e17269"/>
      <path id="Path_1121" data-name="Path 1121" d="M457.754,205.116l.114.042c.071.025.181.05.3.1s.261.076.408.139.3.08.45.143l.223.059a.835.835,0,0,0,.219.042c.139.008.273.046.387.046.227,0,.408.013.408.013l.059,0a.2.2,0,0,1,.181.214.206.206,0,0,1-.092.151,3.018,3.018,0,0,1-.479.219.712.712,0,0,1-.235.05c-.088.008-.189.021-.278.021a2.59,2.59,0,0,1-.3-.025l-.3-.05a2.74,2.74,0,0,1-.959-.492,1.418,1.418,0,0,1-.252-.24.325.325,0,0,1-.08-.105l-.017-.021a.218.218,0,0,1,.088-.29A.222.222,0,0,1,457.754,205.116Z" transform="translate(-214.24 -144.928)" fill="#df2d0c"/>
      <path id="Path_1122" data-name="Path 1122" d="M401.658,210.835s0,.248.042.711c.025.236.034.521.08.845s.093.7.156,1.119c.139.828.328,1.85.639,3,.29,1.152.7,2.426,1.19,3.793s1.131,2.822,1.838,4.331a42.818,42.818,0,0,0,2.6,4.533,35.3,35.3,0,0,0,3.4,4.382l.988,1,.5.5.538.467,1.085.925,1.14.824.589.416c.139.093.4.244.593.366l1.27.786c.837.475,1.657.912,2.511,1.346,1.72.849,3.427,1.657,5.134,2.359.837.362,1.678.7,2.506,1.018s1.632.652,2.439.934c.782.3,1.564.589,2.309.845.748.273,1.472.53,2.182.77,1.4.471,2.7.9,3.831,1.283s2.149.69,2.982.942l2.6.795a.444.444,0,0,1,.29.53.46.46,0,0,1-.475.3s-.988-.156-2.7-.513c-1.7-.378-4.146-.887-7.035-1.7-1.447-.391-3-.845-4.643-1.388-1.632-.513-3.343-1.11-5.1-1.8s-3.553-1.451-5.345-2.321c-.887-.45-1.817-.942-2.7-1.426l-1.266-.765c-.236-.139-.4-.231-.673-.416l-.631-.458-1.262-.912-1.165-1.026-.58-.5-.538-.551-1.064-1.1a34,34,0,0,1-3.52-4.756,36.732,36.732,0,0,1-2.552-4.878c-.328-.812-.66-1.585-.946-2.355-.244-.782-.534-1.518-.728-2.254a35.255,35.255,0,0,1-1.358-7.208,18.032,18.032,0,0,1-.034-2.065c.017-.467.025-.715.025-.715a.423.423,0,0,1,.437-.408A.438.438,0,0,1,401.658,210.835Z" transform="translate(-396.02 -127.826)" fill="#5944b1"/>
      <path id="Path_1123" data-name="Path 1123" d="M405.928,210.912s.278.551.719,1.518c.219.5.53,1.047.862,1.695.315.648.749,1.358,1.186,2.145.412.791.971,1.581,1.51,2.46s1.207,1.711,1.838,2.624c.349.425.7.862,1.064,1.308.189.214.362.442.538.652l.6.622c.408.421.795.85,1.207,1.262l1.316,1.135c.219.177.458.4.648.542l.732.53q.738.543,1.463,1.072c.976.639,1.93,1.287,2.864,1.9.95.61,1.875,1.194,2.75,1.749l2.494,1.547c3.095,1.918,5.164,3.192,5.164,3.192a.424.424,0,0,1-.374.757s-.589-.223-1.56-.652-2.384-1.039-4.024-1.859-3.545-1.821-5.53-2.986c-1-.576-2.014-1.245-3.053-1.9-.492-.345-.98-.7-1.472-1.047l-.749-.534c-.3-.219-.5-.421-.749-.635l-1.421-1.253c-.437-.45-.858-.925-1.278-1.375l-.631-.685c-.185-.24-.362-.488-.551-.732-.366-.479-.723-.959-1.077-1.421-.332-.479-.639-.976-.942-1.451-.286-.488-.6-.934-.841-1.417-.5-.934-1-1.821-1.362-2.675-.387-.845-.723-1.623-.984-2.334s-.513-1.329-.66-1.833c-.32-1.022-.479-1.611-.479-1.611a.416.416,0,0,1,.286-.526A.424.424,0,0,1,405.928,210.912Z" transform="translate(-382.036 -127.066)" fill="#5944b1"/>
      <path id="Path_1129" data-name="Path 1129" d="M418.314,228.39c1.589.631,11.509,4.016,11.821,3.162s-4.962-2.321-4.319-2.746c.627-.416,7.279,1.8,7.489.841.21-.938-6.232-2.422-5.6-2.952s6.013,1.056,6.013-.1c0-1.173-5.479-2.01-5.378-2.54s4.537-.32,4.432-1.161-5.484,0-5.282-.841,4.642-2.22,4.121-3.066-6.858,1.695-7.5,1.8a42.482,42.482,0,0,1-5.059-.841Z" transform="translate(-339.767 -100.974)" fill="url(#linear-gradient-12)"/>
      <path id="Path_1132" data-name="Path 1132" d="M490.63,216.789s-.538.3-1.459.812c-.467.261-1.051.513-1.694.833-.669.32-1.426.631-2.254.967-1.657.669-3.62,1.4-5.757,2.094s-4.4,1.375-6.69,2c-2.3.656-4.621,1.173-6.8,1.669s-4.234.854-6,1.123c-.883.156-1.7.24-2.435.328-.711.084-1.375.114-1.9.164-.534.034-.929.025-1.2.034H454a.418.418,0,0,1-.42-.383l.4-.05v-.416c.046,0,.193-.021.416-.042.269-.025.681-.042,1.186-.114s1.1-.135,1.812-.265,1.506-.252,2.368-.437c1.737-.311,3.743-.795,5.912-1.287s4.437-1.089,6.728-1.69,4.546-1.261,6.665-1.922c1.06-.324,2.077-.643,3.04-.946.954-.332,1.863-.639,2.7-.938.816-.324,1.6-.576,2.25-.854s1.241-.5,1.7-.719c.294-.13.547-.265.744-.353.046.446.08.7.08.7a5.056,5.056,0,0,0,1.228-.837A.423.423,0,0,1,490.63,216.789Z" transform="translate(-226.738 -109.175)" fill="#2796c8"/>
      <path id="Path_1133" data-name="Path 1133" d="M490.524,222.008l.034.425c-.143.029-.681.143-1.522.3-1,.172-2.414.467-4.125.744-.437.067-.879.139-1.35.223-.467.038-.938.08-1.447.122-.98.1-2.023.181-3.108.273s-2.2.2-3.339.181c-1.135,0-2.3.008-3.457.017-.585-.008-1.169.013-1.737-.017s-1.152-.055-1.712-.093c-1.144-.071-2.258-.135-3.352-.2-1.072-.084-2.115-.227-3.1-.345s-1.918-.219-2.78-.374c-1.716-.252-3.128-.538-4.13-.753-.488-.118-.887-.2-1.135-.269-.156-.042-.256-.067-.328-.08v-.433c-.126,0-.257-.017-.387-.025l.008-.067a.406.406,0,0,1,.458-.32h0l1.564.172c.492.055,1.1.147,1.787.2s1.48.126,2.329.214,1.783.151,2.754.21,2.014.13,3.074.2c1.072.042,2.182.076,3.3.118.564.029,1.135.05,1.695.08.572.013,1.144,0,1.7,0,1.14,0,2.283,0,3.406,0,1.127.021,2.216-.042,3.292-.1q1.6-.057,3.082-.122c.492-.017.967-.034,1.425-.055.454-.042.9-.088,1.325-.13,1.7-.2,3.124-.294,4.117-.4l1.573-.114h.034a.424.424,0,0,1,.429.248C490.654,221.958,490.524,222.008,490.524,222.008Z" transform="translate(-226.838 -92.982)" fill="#2796c8"/>
      <g id="Group_372" data-name="Group 372" transform="translate(159.993 -210.445)">
        <g id="Group_348" data-name="Group 348" transform="translate(-67.655 260.977)">
          <g id="Group_333" data-name="Group 333">
            <rect id="Rectangle_165" data-name="Rectangle 165" width="87.613" height="54.285" rx="5.889" fill="#364448"/>
            <rect id="Rectangle_166" data-name="Rectangle 166" width="79.449" height="46.121" transform="translate(4.082 4.124)" fill="#fff"/>
          </g>
          <g id="Group_347" data-name="Group 347" transform="translate(7.069 6.846)">
            <rect id="Rectangle_167" data-name="Rectangle 167" width="50.939" height="32.831" transform="translate(53.137 38.971) rotate(180)" fill="#6876b3"/>
            <path id="Path_354" data-name="Path 354" d="M8.044,0A8.044,8.044,0,1,1,0,8.044,8.044,8.044,0,0,1,8.044,0Z" transform="translate(18.585 13.672)" opacity="0.397"/>
            <path id="Path_243" data-name="Path 243" d="M-2.414,316.291-10.88,311.4v9.775Z" transform="translate(34.509 -294.576)" fill="#fff"/>
            <g id="Group_344" data-name="Group 344" transform="translate(2.32 36.107)">
              <rect id="Rectangle_168" data-name="Rectangle 168" width="49.914" height="0.406" fill="#fff"/>
              <g id="Group_334" data-name="Group 334">
                <rect id="Rectangle_169" data-name="Rectangle 169" width="26.522" height="0.406" fill="#e39225"/>
              </g>
              <g id="Group_343" data-name="Group 343" transform="translate(1.099 0.831)">
                <g id="Group_335" data-name="Group 335" transform="translate(0 0)">
                  <path id="Path_244" data-name="Path 244" d="M-46.234,347.446v-.864l.529.432.529.432-.529.432-.529.432Z" transform="translate(46.234 -346.581)" fill="#fff"/>
                </g>
                <g id="Group_341" data-name="Group 341" transform="translate(1.659)">
                  <g id="Group_336" data-name="Group 336">
                    <path id="Path_245" data-name="Path 245" d="M-42.493,346.644l-.585.478h-.253v.647h.253l.585.478c.18.147.328.027.328-.268v-1.068C-42.165,346.617-42.313,346.5-42.493,346.644Z" transform="translate(43.331 -346.581)" fill="#fff"/>
                  </g>
                  <g id="Group_339" data-name="Group 339" transform="translate(1.298 0.029)">
                    <g id="Group_337" data-name="Group 337">
                      <path id="Path_246" data-name="Path 246" d="M-41.032,347.216a.028.028,0,0,1-.025-.02.051.051,0,0,1,.01-.055l.612-.5c.014-.011.031,0,.039.015a.051.051,0,0,1-.01.055l-.612.5A.025.025,0,0,1-41.032,347.216Z" transform="translate(41.061 -346.631)" fill="#fff"/>
                    </g>
                    <g id="Group_338" data-name="Group 338" transform="translate(0 1.086)">
                      <path id="Path_247" data-name="Path 247" d="M-40.42,349.117c-.014-.005-.627-.509-.627-.509a.051.051,0,0,1-.01-.055c.008-.019.026-.026.039-.015l.612.5a.051.051,0,0,1,.01.055A.028.028,0,0,1-40.42,349.117Z" transform="translate(41.061 -348.531)" fill="#fff"/>
                    </g>
                  </g>
                  <g id="Group_340" data-name="Group 340" transform="translate(1.298 0.824)">
                    <path id="Path_248" data-name="Path 248" d="M-40.372,348.1h-.66c-.015,0-.029-.018-.029-.041s.013-.041.029-.041h.66c.016,0,.029.018.029.041S-40.356,348.1-40.372,348.1Z" transform="translate(41.061 -348.022)" fill="#fff"/>
                  </g>
                </g>
                <g id="Group_342" data-name="Group 342" transform="translate(45.848 0.079)">
                  <path id="Path_249" data-name="Path 249" d="M36.033,348.29H33.966v-1.57h2.067Zm-1.952-.163h1.837v-1.245H34.081Z" transform="translate(-33.966 -346.72)" fill="#fff"/>
                </g>
              </g>
            </g>
            <g id="Group_346" data-name="Group 346">
              <rect id="Rectangle_170" data-name="Rectangle 170" width="42.154" height="3.6" transform="translate(7.076)" fill="#cecece"/>
              <g id="Group_345" data-name="Group 345" transform="translate(46.127 0.508)">
                <rect id="Rectangle_171" data-name="Rectangle 171" width="2.585" height="2.585" rx="0.848" fill="#fff"/>
                <path id="Path_250" data-name="Path 250" d="M29.857,284.994a.757.757,0,1,1,.757-.757A.758.758,0,0,1,29.857,284.994Zm0-1.393a.636.636,0,1,0,.636.636A.637.637,0,0,0,29.857,283.6Z" transform="translate(-28.742 -283.123)" fill="#3d4861"/>
                <path id="Path_251" data-name="Path 251" d="M31.788,286.254l-.578-.577.086-.086.578.577Z" transform="translate(-29.647 -284.027)" fill="#3d4861"/>
              </g>
              <rect id="Rectangle_172" data-name="Rectangle 172" width="5.789" height="3.6" fill="#e39225"/>
            </g>
          </g>
        </g>
        <g id="Group_371" data-name="Group 371" transform="translate(-63.574 248.946)">
          <g id="Group_370" data-name="Group 370" clip-path="url(#clip-path)">
            <g id="Group_369" data-name="Group 369" transform="translate(38.145 4.609)">
              <path id="Path_252" data-name="Path 252" d="M37.505,300.466a5.55,5.55,0,0,1-3.043,3.513c-1.953.772,3.4,5.44,8.462,5.44s6.13-5.966,5.784-6.312-2.324.566-2.574-3.088C43.407,301.97,37.931,300.466,37.505,300.466Z" transform="translate(-19.893 -275.432)" fill="#985827"/>
              <path id="Path_253" data-name="Path 253" d="M53.171,323.955c0,4.61-.636,9.45-2.6,9.33-2.351-.129-4.425-2.019-5.495-4.342-.221,3.3-1.217,6.767-4.186,8.03-4.831,2.084-18.495,3.227-20.164-1.032a31.443,31.443,0,0,1-1.2-7.975c-.129.618-.24,1.07-.3,1.291-.48,1.632-3.8,3.688-6.334,4.149s-4.2-4.49-3.4-8.012,2.25-7.607,2.886-10.483a9.053,9.053,0,0,1,3.78-6.057c1.457-1.06,4.223-1.558,6.214-2.3a5.936,5.936,0,0,0,.645-.267,4.454,4.454,0,0,0,.627-.314c.027-.018.055-.027.083-.046.978-.618,5.016,4.01,8.03,4.324a2.667,2.667,0,0,0,.461.018.915.915,0,0,0,.221-.027c2.231-.452,3.337-5.606,3.882-5.873a1.351,1.351,0,0,0,.249.185,2.572,2.572,0,0,0,.765.276,5.6,5.6,0,0,0,.747.138c.268.028.544.055.839.065a.346.346,0,0,0,.092.009,35.882,35.882,0,0,1,3.808.249,8.921,8.921,0,0,1,4.941,3.347C48.645,310.125,53.171,319.345,53.171,323.955Z" transform="translate(-9.285 -277.292)" fill="#59ca2e"/>
              <path id="Path_254" data-name="Path 254" d="M39.928,293.984a9.15,9.15,0,0,1-.215,4.247c-.429.693,2.607,1.833,3.768,1.833,2.593,0,5.106-2.664,5.062-2.886a12.947,12.947,0,0,1,.01-3.683C48.645,293.072,39.928,293.984,39.928,293.984Z" transform="translate(-22.301 -272.589)" fill="#ac6632"/>
              <path id="Path_255" data-name="Path 255" d="M75.208,314.394c0-.345,4.514-.165,4.514.3s.4,7.99.615,9.3-.436,12.956-1.88,13.316a5.189,5.189,0,0,1-5.746-5.4,29.891,29.891,0,0,1,1.537-10.1A33.83,33.83,0,0,0,75.208,314.394Z" transform="translate(-36.453 -281.512)" fill="#d5fff1"/>
              <path id="Path_256" data-name="Path 256" d="M16.334,316.026a5.726,5.726,0,0,1-3.3,1.369c-1.329,0-2.535-.318-2.535-.545a4.594,4.594,0,0,1,3.427-1.234C15.257,315.616,16.334,315.8,16.334,316.026Z" transform="translate(-9.806 -282.112)"/>
              <path id="Path_257" data-name="Path 257" d="M81.593,314.62c0,.282-.34.808-1.825.808s-2.689-.823-2.689-1.105.968-.274,2.454-.274S81.593,314.338,81.593,314.62Z" transform="translate(-38.324 -281.441)"/>
              <path id="Path_258" data-name="Path 258" d="M75.376,315.256a37.811,37.811,0,0,1-.879,6.162,44.775,44.775,0,0,0-1.391,6.694c-.039.595.334-4.174.5-5.167C73.9,321.251,74.7,318.671,75.376,315.256Z" transform="translate(-36.621 -281.958)" fill="#4eb92a"/>
              <path id="Path_259" data-name="Path 259" d="M20.7,316.333a47.715,47.715,0,0,0,1.367,6.878,13.181,13.181,0,0,1,.312,5.245c-.169-1.091-.516-3.12-.695-4.11C21.383,322.652,21.034,318.986,20.7,316.333Z" transform="translate(-14.177 -282.419)" fill="#4eb92a"/>
              <g id="Group_351" data-name="Group 351" transform="translate(0.001 18.351)">
                <path id="Path_260" data-name="Path 260" d="M26.679,292.485c.288,0,.707.718.555,1.132a5.845,5.845,0,0,1-2.313,1.566,3.141,3.141,0,0,0-1.5.72c-.317.317-1.254,1.338-1.93.661s.547-2.851,1.354-2.851S23.885,292.485,26.679,292.485Z" transform="translate(-14.431 -290.555)" fill="#985827"/>
                <path id="Path_261" data-name="Path 261" d="M14.622,291.583c.615-.3,1.277,0,2.141,0s1.642-.075,2.607,0a13.491,13.491,0,0,1,2.478.459c.23.091,1.527,1.166,1.527,1.9s-.446.665-.735.665A2.838,2.838,0,0,1,21,293.8a11.009,11.009,0,0,1-1.412-.216,1.934,1.934,0,0,1-.519,1.758c.23.36.2,1.658-.663,1.945,0,.936-.014.878-.692,1.685-.36.23-1.239,0-1.239,0s-.23,1.008-.562,1.21-.19,2.213-.038,2.741.441,2.354.529,3.033-3,2.38-4.871.784a42.776,42.776,0,0,0,.38-6.548c0-1.018.807-2.036.922-3.4a7.984,7.984,0,0,1,.019-1.844c.134-.6-.231-1.134.211-1.575s.73-.346.9-.711S14.084,291.843,14.622,291.583Z" transform="translate(-10.249 -290.112)" fill="#985827"/>
                <g id="Group_349" data-name="Group 349" transform="translate(10.195)">
                  <path id="Path_262" data-name="Path 262" d="M29.038,298.5a.691.691,0,0,1-.631.736h-.34a.691.691,0,0,1-.631-.736v-7.7a4.771,4.771,0,0,0-.158-1.214l-.158-.477h2.224s-.062.215-.149.477a4.8,4.8,0,0,0-.158,1.214Z" transform="translate(-27.121 -289.109)" fill="#daffff"/>
                  <path id="Path_263" data-name="Path 263" d="M28.711,299.121h-.34a.692.692,0,0,1-.631-.736v-7.7a4.8,4.8,0,0,0-.157-1.214l-.12-.362h-.341l.158.477a4.771,4.771,0,0,1,.158,1.214v7.7a.692.692,0,0,0,.631.736h.34a.564.564,0,0,0,.342-.119C28.737,299.118,28.724,299.121,28.711,299.121Z" transform="translate(-27.121 -289.109)" fill="#a3ffff"/>
                </g>
                <path id="Path_264" data-name="Path 264" d="M19.086,297.494a9.488,9.488,0,0,1,2,.1,4.4,4.4,0,0,1,.992.237.783.783,0,0,1,.249.156.5.5,0,0,1,.076.314,2.773,2.773,0,0,1-.067.517,2.86,2.86,0,0,1-.392.96.489.489,0,0,1-.244.2.69.69,0,0,1-.292-.039l-.482-.094c-.653-.1-1.312-.206-1.975-.268a13.839,13.839,0,0,1,2,.092,4.783,4.783,0,0,1,.5.075.817.817,0,0,0,.194.037.326.326,0,0,0,.129-.122,2.712,2.712,0,0,0,.336-.887,2.559,2.559,0,0,0,.072-.469.545.545,0,0,0-.017-.168.627.627,0,0,0-.172-.106,5.544,5.544,0,0,0-.939-.255A15.258,15.258,0,0,0,19.086,297.494Z" transform="translate(-13.427 -292.692)" fill="#bc7a47"/>
                <path id="Path_265" data-name="Path 265" d="M17.809,301.149c.629-.025,1.259-.027,1.889.009a7.232,7.232,0,0,1,.948.094,1.869,1.869,0,0,1,.244.058.308.308,0,0,1,.226.226,1.191,1.191,0,0,1-.02.518,2.671,2.671,0,0,1-.372.9.83.83,0,0,1-.178.2.489.489,0,0,1-.279.086,3.637,3.637,0,0,1-.485-.021,4.531,4.531,0,0,0-.918-.047c-.291.066-.6.144-.9.235a4.887,4.887,0,0,1,.876-.377,3.985,3.985,0,0,1,.962-.007,3.5,3.5,0,0,0,.455.011c.154,0,.195-.068.291-.2a2.9,2.9,0,0,0,.333-.832,1.027,1.027,0,0,0,.033-.414c.015-.083-.155-.1-.3-.14-.3-.057-.613-.09-.923-.129Z" transform="translate(-12.937 -294.258)" fill="#bc7a47"/>
                <path id="Path_266" data-name="Path 266" d="M9.981,317.212c0,1.318-.486,6.208-.577,8.433s-.684,9.526,2.052,12.4,6.483-6.392,6.037-9.53-1.725-8.953-1.725-12.049C14.812,317.307,11.811,318.2,9.981,317.212Z" transform="translate(-9.287 -300.825)" fill="#d5fff1"/>
                <g id="Group_350" data-name="Group 350" transform="translate(6.671 1.398)">
                  <path id="Path_267" data-name="Path 267" d="M23.623,293.68a10.964,10.964,0,0,0,1.412.216c.277-.046.676.89,1.642.807s.819-.526.719-.81a7.787,7.787,0,0,0-1.469-1.738c-.215-.075-2.395-.458-2.644-.48s-2.17,0-2.327,0Z" transform="translate(-20.956 -291.602)" fill="#985827"/>
                  <path id="Path_268" data-name="Path 268" d="M23.623,293.633a10.181,10.181,0,0,0,1.493.17,4.117,4.117,0,0,1,.6.47,1.406,1.406,0,0,0,.641.284,1.816,1.816,0,0,0,.7-.07c.23-.069.36-.214.291-.437a1.556,1.556,0,0,0-.347-.6c-.151-.2-.309-.386-.472-.573s-.324-.377-.5-.543a.369.369,0,0,0-.282-.145l-.365-.069-1.457-.281c-.244-.043-.485-.113-.732-.135l-.746-.016-1.5-.056,1.5-.057.752-.016c.25.011.5.071.745.1l1.491.255.373.065a.561.561,0,0,1,.364.188c.189.177.355.364.521.555s.321.388.472.59a1.78,1.78,0,0,1,.376.692.538.538,0,0,1-.07.443.72.72,0,0,1-.365.229,1.793,1.793,0,0,1-.785.055c-.549-.078-.9-.574-1.249-.821A9.813,9.813,0,0,1,23.623,293.633Z" transform="translate(-20.956 -291.555)" fill="#bc7a47"/>
                </g>
                <path id="Path_269" data-name="Path 269" d="M19.47,293.715a6.8,6.8,0,0,1,2.234.146,4.917,4.917,0,0,1,.537.185,1.222,1.222,0,0,1,.512.316c.309.36.15.831.089,1.162a5.342,5.342,0,0,1-.14.553.919.919,0,0,1-.142.282.37.37,0,0,1-.337.142c-.247-.043-.367-.175-.539-.212-.17-.054-.348-.1-.528-.136-.723-.141-1.465-.231-2.2-.307a13.713,13.713,0,0,1,2.236.133,3.579,3.579,0,0,1,.558.121c.195.047.369.185.5.193.122.023.2-.114.25-.285a5.39,5.39,0,0,0,.123-.531c.082-.366.193-.729-.022-.979a2.683,2.683,0,0,0-.936-.466,9.161,9.161,0,0,0-1.083-.224A4.527,4.527,0,0,0,19.47,293.715Z" transform="translate(-13.427 -291.064)" fill="#bc7a47"/>
              </g>
              <g id="Group_352" data-name="Group 352" transform="translate(33.241 13.667)">
                <path id="Path_270" data-name="Path 270" d="M69.01,291.978a6.806,6.806,0,0,1,2.075-.154,15.642,15.642,0,0,1,2.631.48,2.687,2.687,0,0,1,.942,1.306c.192.518.845,3.093.941,3.419s.845,2.651,1.095,3.265a25.612,25.612,0,0,1,.346,4.61c-.019.749-.019.543-.019.749a4.1,4.1,0,0,1-3.851-.554,6.315,6.315,0,0,0-.016-2.442,7.329,7.329,0,0,0-.244-2.576c-.269-.651-1.431-1.064-2.093-1.727a8.155,8.155,0,0,1-1.134-2.3c-.365-.672-1.921-1.959-2.17-2.766s.158-.918.326-1.086.739.039.979.279h0Z" transform="translate(-67.433 -285.586)" fill="#985827"/>
                <path id="Path_271" data-name="Path 271" d="M70.024,292.1a1.757,1.757,0,0,0,.037,1.334c.145.438.182.929.353,1.3a11.812,11.812,0,0,1,.46,1.307,1.765,1.765,0,0,0,.3.587c.113.184,0,.157-.083.075a1.873,1.873,0,0,1-.379-.6c-.193-.418-.288-.891-.5-1.26a8.784,8.784,0,0,1-.321-1.359A1.623,1.623,0,0,1,70.024,292.1Z" transform="translate(-68.448 -285.706)" fill="#bc7a47"/>
                <path id="Path_272" data-name="Path 272" d="M74.023,294.177a16.953,16.953,0,0,0-2.161-.007,1.555,1.555,0,0,0-.926.379c-.257.228-.059.539.091.891,0,.011.314,1.177.314,1.177a5.229,5.229,0,0,0,.384,1.108c.117.191.18.371.3.523a.424.424,0,0,0,.446.2c.329-.133.388-.535.328-.894a.83.83,0,0,1,.045.529.5.5,0,0,1-.938.254,5.673,5.673,0,0,1-.329-.51,4.666,4.666,0,0,1-.438-1.156c-.113-.389-.229-.776-.325-1.169a4.351,4.351,0,0,1-.2-.508.6.6,0,0,1,.173-.594,1.619,1.619,0,0,1,1.056-.4A11.142,11.142,0,0,1,74.023,294.177Z" transform="translate(-68.787 -286.516)" fill="#bc7a47"/>
                <path id="Path_273" data-name="Path 273" d="M75.063,295.972c-.743-.069-1.479-.237-2.214-.3-.39-.1-.612.237-.834.52a1.411,1.411,0,0,0-.3.988,1.054,1.054,0,0,0,.557.819c.313.067.767.42.9.212a.709.709,0,0,0-.155-.872l-.1-.089-.027-.024a.13.13,0,0,1-.045-.148c.051-.076.056-.048.089-.062a.261.261,0,0,1,.121.032l.256.112a1.729,1.729,0,0,0,.5.153l.055,0,.026.039a.836.836,0,0,0,.164.185c.065.056.135.085.23.159a.99.99,0,0,1,.162.262.357.357,0,0,0,.139.163l.071.029-.026.089a5.174,5.174,0,0,0-.143,1.1,6.6,6.6,0,0,0,.045,1.135,3.68,3.68,0,0,0,.305,1.084,1.439,1.439,0,0,0,.808.757,1.709,1.709,0,0,1-.934-.787,2.784,2.784,0,0,1-.3-1.036,6.767,6.767,0,0,1-.07-1.158c.017-.393.138-1.078.138-1.078-.125-.054-.137-.132-.186-.214a1.082,1.082,0,0,0-.125-.209,3.24,3.24,0,0,1-.389-.338,1.211,1.211,0,0,1-.465-.1,1.034,1.034,0,0,1,.034.936.371.371,0,0,1-.34.145.948.948,0,0,1-.3-.094c-.181-.1-.312-.134-.517-.221a1.236,1.236,0,0,1-.639-.968,1.565,1.565,0,0,1,.349-1.1,2.181,2.181,0,0,1,.392-.423.56.56,0,0,1,.278-.14,1.711,1.711,0,0,1,.293.005C73.611,295.632,74.324,295.864,75.063,295.972Z" transform="translate(-69.191 -287.182)" fill="#bc7a47"/>
                <path id="Path_274" data-name="Path 274" d="M72.719,280.916c.4,0,.477.4.553.759a9.787,9.787,0,0,1,.239,1.269,10.845,10.845,0,0,0,.661,1.475c.054.184.8,2.364.976,3.058s.2.986,0,.986-1.888-.822-1.888-1.316-.423-1.438-.488-1.937-.282-1.562-.282-2.029S72.122,280.916,72.719,280.916Z" transform="translate(-69.551 -280.916)" fill="#985827"/>
              </g>
              <g id="Group_362" data-name="Group 362" transform="translate(11.801 0)">
                <path id="Path_275" data-name="Path 275" d="M31.6,281.783c-.1-.061-.676-.2-.806-.066a4.439,4.439,0,0,0,.2,1.581c.087.347.795,1.325,1.12,2.084s.706.835.8.475A12.9,12.9,0,0,0,31.6,281.783Z" transform="translate(-30.283 -267.569)" fill="#bc7a47"/>
                <path id="Path_276" data-name="Path 276" d="M57.884,279.545c.117-.284.8-.523,1.029-.3s-.067,1.091-.067,1.513-.308,1.781-.308,2.223.046,1.2-.328,1.2S57.105,281.447,57.884,279.545Z" transform="translate(-41.755 -266.496)" fill="#bc7a47"/>
                <path id="Path_277" data-name="Path 277" d="M41.017,254.606c1.441.686,3.329,1.661,3.956,6.2a22.757,22.757,0,0,1-.52,9.028c-.245,1.683-2.46,3.953-2.46,4.364s-8.216-1.73-8.723-2.272-3.149-.244-3.534-2.092-1.635-3.367-1.635-6.62.182-4.888,1.984-6.519,4.3-3.192,6.3-3.137A13.7,13.7,0,0,1,41.017,254.606Z" transform="translate(-28.102 -253.557)" fill="#191004"/>
                <path id="Path_278" data-name="Path 278" d="M38.578,260.8c1.267-.05,6.816,1.959,7.566,5.532s.461,4.264.461,4.783.374,2.679.374,3.8-1.815,3.89-2.161,4.811a14.3,14.3,0,0,1-2.937,4.063,4.437,4.437,0,0,1-2.846.223c-1.172-.412-2.021-2.329-2.5-2.806a28.865,28.865,0,0,1-3.4-4.063,45.381,45.381,0,0,1-1.652-4.879c-.4-1.23-.634-4.852,0-6.158S35.178,260.935,38.578,260.8Z" transform="translate(-30.428 -258.633)" fill="#985827"/>
                <path id="Path_280" data-name="Path 280" d="M35.064,277.984a4.457,4.457,0,0,1,1.969-.3c.317,0,1.561.1,1.974.163.261.038.285.741.115,1.155-.192.466-1.052.475-1.57.475a5.809,5.809,0,0,1-2.247-.4C35.045,278.82,34.859,278.151,35.064,277.984Z" transform="translate(-32.091 -265.867)" fill="#fff"/>
                <path id="Path_281" data-name="Path 281" d="M50.451,277.565c.225-.047,1.95-.317,2.44-.317s1.229.017,1.229.3a1.757,1.757,0,0,1-.321,1.071,1.786,1.786,0,0,1-1.291.36c-.653,0-2.023.24-2.181-.2C50.206,278.444,49.746,277.713,50.451,277.565Z" transform="translate(-38.555 -265.678)" fill="#fff"/>
                <path id="Path_282" data-name="Path 282" d="M45.112,287.233a1.022,1.022,0,0,1,.673-.168,1.212,1.212,0,0,0,.578.062,3.666,3.666,0,0,1,1.148-.11,3.759,3.759,0,0,0-.537.257,3.423,3.423,0,0,1-.568.238,1.043,1.043,0,0,1-.638-.117C45.584,287.335,45.3,287.186,45.112,287.233Z" transform="translate(-36.432 -269.858)" fill="#bc7a47"/>
                <path id="Path_283" data-name="Path 283" d="M47.017,278.041c-.125-.291.151,3.2.151,3.631S48.025,280.4,47.017,278.041Z" transform="translate(-37.234 -266.01)" fill="#bc7a47"/>
                <g id="Group_353" data-name="Group 353" transform="translate(6.559 18.351)">
                  <path id="Path_284" data-name="Path 284" d="M41.4,289.6a8.691,8.691,0,0,0,2.4.451,11.094,11.094,0,0,0,2.123-.154,8.56,8.56,0,0,0,1.8-.787,5.784,5.784,0,0,0-1.038,1.537,23.639,23.639,0,0,1-.864,2.228,1.512,1.512,0,0,1-2.017.154,14.248,14.248,0,0,1-1.306-2.063C42.334,290.8,41.63,289.78,41.4,289.6Z" transform="translate(-41.401 -289.109)" fill="#c77c42"/>
                  <path id="Path_285" data-name="Path 285" d="M42.106,290.01a7.6,7.6,0,0,0,2.092.393,9.716,9.716,0,0,0,1.852-.134,7.462,7.462,0,0,0,1.566-.687,5.053,5.053,0,0,0-.9,1.341,20.708,20.708,0,0,1-.754,1.944A1.319,1.319,0,0,1,44.2,293a12.418,12.418,0,0,1-1.139-1.8C42.92,291.061,42.306,290.167,42.106,290.01Z" transform="translate(-41.703 -289.312)" fill="#380c0c"/>
                  <path id="Path_286" data-name="Path 286" d="M42.106,290.01a7.6,7.6,0,0,0,2.092.393,9.716,9.716,0,0,0,1.852-.134,7.462,7.462,0,0,0,1.566-.687,5.053,5.053,0,0,0-.9,1.341c-.1.285-3.513.417-3.652.278S42.306,290.167,42.106,290.01Z" transform="translate(-41.703 -289.312)" fill="#fff"/>
                </g>
                <g id="Group_354" data-name="Group 354" transform="translate(11.505 9.423)">
                  <ellipse id="Ellipse_103" data-name="Ellipse 103" cx="0.839" cy="0.822" rx="0.839" ry="0.822" transform="translate(0.726 2.129)"/>
                  <path id="Path_288" data-name="Path 288" d="M53.678,277.8c0,.11-.061.2-.135.2s-.136-.089-.136-.2.061-.2.136-.2S53.678,277.693,53.678,277.8Z" transform="translate(-51.489 -275.253)" fill="#fff"/>
                  <path id="Path_289" data-name="Path 289" d="M50.271,276.551c.07.376-.078.483-.078.677a5.91,5.91,0,0,1,3.923-.344,2.248,2.248,0,0,0-.593-.518,3.047,3.047,0,0,0-1.774-.3A4.454,4.454,0,0,0,50.271,276.551Z" transform="translate(-50.113 -274.589)" fill="#bc7a47"/>
                  <path id="Path_290" data-name="Path 290" d="M50.053,274.045c.152-.35.805-.533,1.1-.552a6.445,6.445,0,0,1,.806.082,5.389,5.389,0,0,1,1.911.608c-.542-.093-1.22-.151-1.808-.2a8.523,8.523,0,0,0-.9-.059A3.78,3.78,0,0,0,50.053,274.045Z" transform="translate(-50.053 -273.492)" fill="#191004"/>
                  <path id="Path_291" data-name="Path 291" d="M51.2,280.3a12.475,12.475,0,0,0,2.036-.037c.1-.006-.716.961-.954.961S51.179,280.595,51.2,280.3Z" transform="translate(-50.542 -276.391)" fill="#c77c42"/>
                </g>
                <g id="Group_355" data-name="Group 355" transform="translate(2.868 9.565)">
                  <path id="Path_293" data-name="Path 293" d="M39.28,278.48a.84.84,0,1,1-.839-.822A.831.831,0,0,1,39.28,278.48Z" transform="translate(-36.083 -275.419)"/>
                  <path id="Path_294" data-name="Path 294" d="M39.956,278.244c0,.11-.061.2-.136.2s-.136-.089-.136-.2.061-.2.136-.2S39.956,278.134,39.956,278.244Z" transform="translate(-36.975 -275.585)" fill="#fff"/>
                  <path id="Path_295" data-name="Path 295" d="M35.542,276.741c-.169.211-.275.524-.412.66.79-.513,3.194-.3,4.01-.1-.192-.2-.376-.412-.341-.559a6.214,6.214,0,0,0-1.667-.41C36.568,276.34,35.875,276.325,35.542,276.741Z" transform="translate(-35.024 -274.849)" fill="#bc7a47"/>
                  <path id="Path_296" data-name="Path 296" d="M34.945,274.478a4.833,4.833,0,0,1,1.327-.529c.328-.082.663-.138,1-.19.672-.073,1.728.089,1.906.5a11.651,11.651,0,0,0-2.224.008C36.29,274.328,35.633,274.41,34.945,274.478Z" transform="translate(-34.945 -273.741)" fill="#191004"/>
                  <path id="Path_297" data-name="Path 297" d="M36.544,280.534a9.737,9.737,0,0,0,2.574.106c.913-.22-.918,2.715-1.486,1.826S36.544,280.534,36.544,280.534Z" transform="translate(-35.63 -276.651)" fill="#c77c42"/>
                </g>
                <g id="Group_361" data-name="Group 361" transform="translate(1.078 10.126)">
                  <g id="Group_359" data-name="Group 359">
                    <g id="Group_356" data-name="Group 356" transform="translate(0 0.273)">
                      <path id="Path_299" data-name="Path 299" d="M34.884,279.716a5.868,5.868,0,0,1-2.456-.3c-.416-.415-.817-3.417-.5-3.735.409-.409,3.772-.638,5.37-.366.508.087.786.213.875.4a6.677,6.677,0,0,1-.123,3.7A10.837,10.837,0,0,1,34.884,279.716Zm-2.79-3.871a7.365,7.365,0,0,0,.5,3.412c.387.388,4.974.246,5.3,0a6.99,6.99,0,0,0,.077-3.439c-.019-.038-.123-.171-.705-.27C35.612,275.263,32.4,275.553,32.094,275.845Z" transform="translate(-31.815 -275.2)" fill="#e39225"/>
                    </g>
                    <g id="Group_357" data-name="Group 357" transform="translate(10.145)">
                      <path id="Path_300" data-name="Path 300" d="M53.055,279.238a10.845,10.845,0,0,1-3.166-.3,6.688,6.688,0,0,1-.123-3.7c.089-.184.366-.311.875-.4,1.6-.273,4.96-.045,5.37.366.318.318-.083,3.32-.5,3.735A5.873,5.873,0,0,1,53.055,279.238Zm-.669-4.285a10.671,10.671,0,0,0-1.707.115c-.582.1-.687.232-.705.27a6.978,6.978,0,0,0,.078,3.441c.322.245,4.91.387,5.3,0a7.364,7.364,0,0,0,.5-3.412A10.3,10.3,0,0,0,52.385,274.953Z" transform="translate(-49.561 -274.722)" fill="#e39225"/>
                    </g>
                    <g id="Group_358" data-name="Group 358" transform="translate(6.335 1.563)">
                      <path id="Path_301" data-name="Path 301" d="M46.934,278.145H46.7c0-.191-.66-.459-1.734-.459-1.108,0-1.844.274-1.844.455H42.9c0-.45,1.043-.685,2.074-.685C45.916,277.456,46.934,277.672,46.934,278.145Z" transform="translate(-42.896 -277.456)" fill="#e39225"/>
                    </g>
                  </g>
                  <g id="Group_360" data-name="Group 360" transform="translate(0.23 0.231)" opacity="0.2">
                    <path id="Path_302" data-name="Path 302" d="M32.267,276.017a7.365,7.365,0,0,0,.5,3.412c.387.388,4.974.246,5.3,0a6.989,6.989,0,0,0,.077-3.439c-.019-.038-.123-.171-.705-.27C35.785,275.436,32.573,275.725,32.267,276.017Z" transform="translate(-32.217 -275.33)" fill="#0078e7"/>
                    <path id="Path_303" data-name="Path 303" d="M52.558,275.126a10.671,10.671,0,0,0-1.707.115c-.582.1-.687.232-.705.27a6.978,6.978,0,0,0,.078,3.441c.322.245,4.91.387,5.3,0a7.364,7.364,0,0,0,.5-3.412A10.3,10.3,0,0,0,52.558,275.126Z" transform="translate(-39.819 -275.126)" fill="#0078e7"/>
                  </g>
                </g>
              </g>
              <g id="Group_364" data-name="Group 364" transform="translate(13.083 26.723)">
                <path id="Path_304" data-name="Path 304" d="M49.476,306.993a22.031,22.031,0,0,0-3.061,2.028,23.2,23.2,0,0,1-2.858,1.9,4.082,4.082,0,0,1-1.392.517c-2.1.249-8.851-2.545-8.851-2.545s.535-.525,1.051-.95a4.615,4.615,0,0,1,.562-.4c-.405-.157-.885-.369-1.429-.609-.415-.175-.857-.369-1.328-.563a5.941,5.941,0,0,0,.645-.267,2.412,2.412,0,0,0-.249-.074c.867-.544,1.872-1.143,2.424-1.4a1.117,1.117,0,0,1,.12.092c2.176,1.733,5.292,4.453,6.444,5.348a1.735,1.735,0,0,0,.443.3c.027,0,.11-.111.24-.313.673-.987,2.48-4.066,3.78-6.03a.538.538,0,0,1,.046-.074,13.2,13.2,0,0,0,2.849.839.137.137,0,0,0-.037.028.146.146,0,0,0-.065.037c-.3.185-.6.378-.867.563-.858.563-1.475,1.051-1.475,1.051a9.75,9.75,0,0,1,1.227.1A8.451,8.451,0,0,1,49.476,306.993Z" transform="translate(-32.171 -303.842)" fill="#adcac0" opacity="0.4" style="mix-blend-mode: multiply;isolation: isolate"/>
                <path id="Path_305" data-name="Path 305" d="M49.239,304.72a.235.235,0,0,0-.065.018c-.046.009-.092.018-.147.027a5.121,5.121,0,0,0-.765.3,16.73,16.73,0,0,0-2.719,1.724,7.466,7.466,0,0,1,2.194.378c-1.318.572-3.909,3.07-5.347,3.236-1.53.194-6.454-1.853-6.454-1.853a8.523,8.523,0,0,1,1.18-.978c-.821-.322-2.093-.968-3.577-1.429a3.268,3.268,0,0,0-.424-.129,2.419,2.419,0,0,0-.249-.074c.867-.544,1.872-1.143,2.424-1.4a1.434,1.434,0,0,1,.35-.138h.037c.7.148,6.361,5.237,6.6,5.237.166,0,3.421-5.744,3.9-5.882a.042.042,0,0,1,.046,0,.89.89,0,0,0,.138.111,13.2,13.2,0,0,0,2.849.839C49.221,304.71,49.23,304.72,49.239,304.72Z" transform="translate(-32.468 -303.754)" fill="#d5fff1"/>
                <circle id="Ellipse_104" data-name="Ellipse 104" cx="0.373" cy="0.373" r="0.373" transform="translate(11.61 9.333)" fill="#d5fff1"/>
                <circle id="Ellipse_105" data-name="Ellipse 105" cx="0.373" cy="0.373" r="0.373" transform="translate(12.355 14.145)" fill="#d5fff1"/>
                <circle id="Ellipse_106" data-name="Ellipse 106" cx="0.373" cy="0.373" r="0.373" transform="translate(12.728 19.432)" fill="#d5fff1"/>
                <circle id="Ellipse_107" data-name="Ellipse 107" cx="0.373" cy="0.373" r="0.373" transform="translate(12.796 26.139)" fill="#d5fff1"/>
                <path id="Path_306" data-name="Path 306" d="M55.181,359.185a.373.373,0,1,1-.373-.373A.373.373,0,0,1,55.181,359.185Z" transform="translate(-41.708 -327.337)" fill="#d5fff1"/>
                <g id="Group_363" data-name="Group 363" transform="translate(9.691 6.556)">
                  <path id="Path_307" data-name="Path 307" d="M50.108,343.21l-.43-.166a93.023,93.023,0,0,0,.715-15.737,90.686,90.686,0,0,0-1.21-11.683c-.038-.234-.058-.369-.058-.388h.231l.23-.015c0,.031.022.144.052.328a91.114,91.114,0,0,1,1.216,11.743C51.083,334.475,50.435,342.361,50.108,343.21Z" transform="translate(-49.124 -315.222)" fill="#d5fff1"/>
                </g>
              </g>
            </g>
          </g>
        </g>
      </g>
      <g id="Group_382" data-name="Group 382" transform="translate(105.234 187.175)">
        <g id="Group_430" data-name="Group 430">
          <path id="Path_992" data-name="Path 992" d="M87.7,160.651l.013-11.347-4.68-.005-.013,11.347a17.977,17.977,0,0,1-1.8,7.823l-5.479,11.306a2.51,2.51,0,0,0,2.256,3.606l14.678.015a2.51,2.51,0,0,0,2.264-3.6L89.48,168.478A17.979,17.979,0,0,1,87.7,160.651Z" transform="translate(-75.482 -148.214)" fill="#defcff"/>
          <path id="Path_993" data-name="Path 993" d="M91.676,191.59H79.889l-3.207,6.635a1.957,1.957,0,0,0,1.762,2.808H93.121a1.956,1.956,0,0,0,1.762-2.808Z" transform="translate(-75.914 -166.411)" fill="#ffe541"/>
          <path id="Path_994" data-name="Path 994" d="M102.765,179.8,97.31,168.48a17.979,17.979,0,0,1-1.784-7.827l.013-11.347-1.848,0-.013,11.347a17.984,17.984,0,0,0,1.784,7.828l5.455,11.318a2.51,2.51,0,0,1-2.264,3.6l1.848,0A2.51,2.51,0,0,0,102.765,179.8Z" transform="translate(-83.312 -148.216)" opacity="0.1"/>
        </g>
        <path id="Path_995" data-name="Path 995" d="M92.9,149.242H86.377a.924.924,0,0,1-.924-.924h0a.924.924,0,0,1,.924-.923H92.9a.924.924,0,0,1,.923.923h0A.924.924,0,0,1,92.9,149.242Z" transform="translate(-79.773 -147.394)" fill="#defcff"/>
        <g id="Group_375" data-name="Group 375" transform="translate(3.26 28.086)">
          <path id="Path_996" data-name="Path 996" d="M82.892,198.761a1.084,1.084,0,0,0,0-1.937,1.122,1.122,0,1,0,0,1.937Z" transform="translate(-81.205 -196.692)" fill="#e6ce3a"/>
        </g>
        <g id="Group_376" data-name="Group 376" transform="translate(7.087 29.771)">
          <path id="Path_997" data-name="Path 997" d="M88.825,201.519a.935.935,0,0,0,0-1.869.935.935,0,0,0,0,1.869Z" transform="translate(-87.922 -199.65)" fill="#e6ce3a"/>
        </g>
        <g id="Group_377" data-name="Group 377" transform="translate(12.015 29.768)">
          <path id="Path_998" data-name="Path 998" d="M97.295,201.141a.748.748,0,0,0,0-1.5.748.748,0,0,0,0,1.5Z" transform="translate(-96.572 -199.645)" fill="#e6ce3a"/>
        </g>
        <g id="Group_378" data-name="Group 378" transform="translate(12.855 26.032)">
          <path id="Path_999" data-name="Path 999" d="M99.258,195.6a1.256,1.256,0,0,0,0-2.511,1.256,1.256,0,0,0,0,2.511Z" transform="translate(-98.046 -193.087)" fill="#e6ce3a"/>
        </g>
        <g id="Group_379" data-name="Group 379" transform="translate(8.417 26.732)">
          <path id="Path_1000" data-name="Path 1000" d="M91.158,196.186a.935.935,0,0,0,0-1.869.935.935,0,0,0,0,1.869Z" transform="translate(-90.256 -194.317)" fill="#e6ce3a"/>
        </g>
        <g id="Group_380" data-name="Group 380" transform="translate(2.869 31.342)">
          <path id="Path_1001" data-name="Path 1001" d="M81.508,202.461l-.088.027a1.251,1.251,0,0,0-.9,1.183,1.271,1.271,0,0,0,.9,1.183l.088.027a1.255,1.255,0,1,0,0-2.42Z" transform="translate(-80.518 -202.409)" fill="#e6ce3a"/>
        </g>
        <g id="Group_381" data-name="Group 381" transform="translate(13.528 32.025)">
          <path id="Path_1002" data-name="Path 1002" d="M100.336,205.905a1.149,1.149,0,0,0,0-2.3,1.149,1.149,0,0,0,0,2.3Z" transform="translate(-99.227 -203.608)" fill="#e6ce3a"/>
        </g>
      </g>
      <g id="Group_396" data-name="Group 396" transform="translate(135.241 185.81)">
        <g id="Group_391" data-name="Group 391" transform="translate(0 25.249)">
          <path id="Path_1013" data-name="Path 1013" d="M142.94,188.857h-39.82A4.143,4.143,0,0,1,107.262,193v2.862a4.144,4.144,0,0,1-4.143,4.144h39.82a4.144,4.144,0,0,0,4.144-4.144V193A4.144,4.144,0,0,0,142.94,188.857Z" transform="translate(-102.381 -188.119)" fill="#f0f0f0"/>
          <path id="Path_1014" data-name="Path 1014" d="M142.94,188.857h-39.82a4.141,4.141,0,0,1,3.778,2.448h31.908a4.144,4.144,0,0,1,4.143,4.144v2.862a4.123,4.123,0,0,1-.365,1.7h.356a4.144,4.144,0,0,0,4.144-4.144V193A4.144,4.144,0,0,0,142.94,188.857Z" transform="translate(-102.381 -188.119)" fill="#5c5c5c" opacity="0.1"/>
          <g id="Group_390" data-name="Group 390">
            <path id="Path_1015" data-name="Path 1015" d="M142.382,200.187H102.562a.737.737,0,1,1,0-1.475h39.821a3.41,3.41,0,0,0,3.406-3.406v-2.862a3.41,3.41,0,0,0-3.406-3.407H102.562a.737.737,0,1,1,0-1.475h39.821a4.887,4.887,0,0,1,4.881,4.882v2.862A4.887,4.887,0,0,1,142.382,200.187Z" transform="translate(-101.824 -187.562)" fill="#38a6c7"/>
          </g>
        </g>
        <g id="Group_393" data-name="Group 393" transform="translate(0 0)">
          <path id="Path_1016" data-name="Path 1016" d="M142.94,144.538h-39.82a4.143,4.143,0,0,1,4.143,4.143v2.862a4.144,4.144,0,0,1-4.143,4.144h39.82a4.144,4.144,0,0,0,4.144-4.144v-2.862A4.143,4.143,0,0,0,142.94,144.538Z" transform="translate(-102.381 -143.8)" fill="#f0f0f0"/>
          <path id="Path_1017" data-name="Path 1017" d="M142.94,144.538h-39.82a4.141,4.141,0,0,1,3.778,2.448h31.908a4.144,4.144,0,0,1,4.143,4.144v2.862a4.123,4.123,0,0,1-.365,1.7h.356a4.144,4.144,0,0,0,4.144-4.144v-2.862A4.144,4.144,0,0,0,142.94,144.538Z" transform="translate(-102.381 -143.8)" fill="#5c5c5c" opacity="0.1"/>
          <g id="Group_392" data-name="Group 392">
            <path id="Path_1018" data-name="Path 1018" d="M142.382,155.868H102.562a.737.737,0,1,1,0-1.475h39.821a3.41,3.41,0,0,0,3.406-3.406v-2.862a3.41,3.41,0,0,0-3.406-3.406H102.562a.737.737,0,1,1,0-1.475h39.821a4.887,4.887,0,0,1,4.881,4.881v2.862A4.887,4.887,0,0,1,142.382,155.868Z" transform="translate(-101.824 -143.243)" fill="#ff6c3b"/>
          </g>
        </g>
        <g id="Group_395" data-name="Group 395" transform="translate(6.014 12.625)">
          <path id="Path_1019" data-name="Path 1019" d="M153.5,166.7H113.675a4.144,4.144,0,0,1,4.143,4.144V173.7a4.143,4.143,0,0,1-4.143,4.144H153.5a4.144,4.144,0,0,0,4.144-4.144v-2.862A4.144,4.144,0,0,0,153.5,166.7Z" transform="translate(-112.937 -165.96)" fill="#f0f0f0"/>
          <path id="Path_1020" data-name="Path 1020" d="M153.5,166.7H113.675a4.142,4.142,0,0,1,3.778,2.449h31.908a4.143,4.143,0,0,1,4.144,4.143v2.862a4.121,4.121,0,0,1-.365,1.7h.355a4.144,4.144,0,0,0,4.144-4.144v-2.862A4.144,4.144,0,0,0,153.5,166.7Z" transform="translate(-112.937 -165.96)" fill="#5c5c5c" opacity="0.1"/>
          <g id="Group_394" data-name="Group 394">
            <path id="Path_1021" data-name="Path 1021" d="M152.938,178.027h-39.82a.737.737,0,1,1,0-1.474h39.82a3.41,3.41,0,0,0,3.406-3.406v-2.862a3.41,3.41,0,0,0-3.406-3.407h-39.82a.737.737,0,1,1,0-1.474h39.82a4.887,4.887,0,0,1,4.881,4.881v2.862A4.887,4.887,0,0,1,152.938,178.027Z" transform="translate(-112.38 -165.403)" fill="#38c78e"/>
          </g>
        </g>
      </g>
    </g>
    <path id="Path_1134" data-name="Path 1134" d="M402.486,218.944c9.886-4.579,8.591-36.547-8.793-42.762-15-5.366-22.847,6.447-16.989,13.477s14.255,9.958,14.449,18.154S394.471,222.649,402.486,218.944Z" transform="translate(-114.751 132.572)" fill="#ffc843"/>
    <path id="Path_1135" data-name="Path 1135" d="M389.911,308.542c10.542,5.269,21.089-2.2,12.889-12.228s-9.962-17.06-12.889-28.191-11.127-4.1-15.231,8.2S378.192,302.685,389.911,308.542Z" transform="translate(-100.584 186.77)" fill="#ffc843"/>
    <path id="Path_1136" data-name="Path 1136" d="M460.566,288.508c-1.9,7.069,18.229,11.736,32.565,6.215s16.27-19.289,6.968-22.434-6.287,7.611-17.434,9.155S462.084,282.869,460.566,288.508Z" transform="translate(177.876 216.127)" fill="#ffc843"/>
    <g id="ask" transform="translate(487 42.186)">
      <path id="Path_1151" data-name="Path 1151" d="M87.22,82.86A39.86,39.86,0,1,1,47.36,43,39.86,39.86,0,0,1,87.22,82.86Zm0,0" transform="translate(-6.096 -34.953)" fill="#ffc843"/>
      <path id="Path_1152" data-name="Path 1152" d="M248.027,82.86a39.859,39.859,0,0,1-39.86,39.86q-1.432,0-2.839-.1a39.862,39.862,0,0,0,0-79.521q1.407-.1,2.839-.1A39.859,39.859,0,0,1,248.027,82.86Zm0,0" transform="translate(-166.904 -34.953)" fill="#e79732"/>
      <path id="Path_1153" data-name="Path 1153" d="M129.424,439.268a7.045,7.045,0,0,1-7.045-7.045V431.3a7.045,7.045,0,0,1,14.091,0v.927A7.045,7.045,0,0,1,129.424,439.268Zm0,0" transform="translate(-99.477 -344.857)" fill="#fff"/>
      <path id="Path_1154" data-name="Path 1154" d="M96.891,32.03a11.715,11.715,0,0,1,11.647-10.439h.168a11.792,11.792,0,0,1,11.546,11.546,11.718,11.718,0,0,1-11.716,11.885h-.205A18.107,18.107,0,0,0,90.176,63.1V76.754a1.871,1.871,0,0,0,1.871,1.871h10.347a1.871,1.871,0,0,0,1.871-1.871V63.2a4.02,4.02,0,0,1,4.051-4.091h.22a25.783,25.783,0,0,0,18.232-44.039A25.653,25.653,0,0,0,108.9,7.5l-.371,0a25.808,25.808,0,0,0-25.77,24.53v4.326a1.871,1.871,0,0,0,1.871,1.871H95.018a1.872,1.872,0,0,0,1.871-1.871Zm0,0" transform="translate(-67.274 -6.096)" fill="#fff"/>
      <path id="Path_1155" data-name="Path 1155" d="M67.6,75.926A38.306,38.306,0,0,1,41.264,86.364c-.956,0-1.919-.036-2.873-.107a8.444,8.444,0,0,0-15.45-4.535,38.452,38.452,0,0,1-7.848-61.985,27.167,27.167,0,0,0-1.007,6.129c0,.022,0,.045,0,.067V30.26a3.279,3.279,0,0,0,3.275,3.275H27.744a3.279,3.279,0,0,0,3.275-3.273l0-4.25A10.31,10.31,0,0,1,41.264,16.9h.149a10.077,10.077,0,0,1,4.388,1.07,1.4,1.4,0,0,0,1.253-2.512,12.873,12.873,0,0,0-5.608-1.366h-.182A13.119,13.119,0,0,0,28.223,25.784a1.456,1.456,0,0,0-.008.149l0,4.327a.468.468,0,0,1-.468.468H17.359a.469.469,0,0,1-.468-.468V25.968A24.4,24.4,0,0,1,41.259,2.807c.116,0,.232,0,.351,0A24.4,24.4,0,0,1,58.64,44.345a24.221,24.221,0,0,1-17.368,7.269h-.229a5.422,5.422,0,0,0-5.454,5.5V70.657a.469.469,0,0,1-.468.468H24.773a.468.468,0,0,1-.468-.468V57.006a16.523,16.523,0,0,1,4.912-11.8,16.693,16.693,0,0,1,11.84-4.873h.206A13.084,13.084,0,0,0,52.186,19.989a1.4,1.4,0,0,0-2.336,1.557,10.291,10.291,0,0,1-8.58,15.978h-.212A19.511,19.511,0,0,0,21.5,57.007V70.657a3.278,3.278,0,0,0,3.275,3.275H35.121A3.278,3.278,0,0,0,38.4,70.657V57.108a2.615,2.615,0,0,1,2.647-2.688h.221A27.22,27.22,0,0,0,67.428,19.726a38.363,38.363,0,0,1,12.133,24.69,1.4,1.4,0,0,0,1.4,1.278c.042,0,.085,0,.127-.006a1.4,1.4,0,0,0,1.273-1.523A41.214,41.214,0,0,0,65.219,14.307l-.009-.006a27.422,27.422,0,0,0-4.722-6.315A27.049,27.049,0,0,0,41.65,0c-.131,0-.261,0-.391,0A27.246,27.246,0,0,0,17.295,14.317,41.207,41.207,0,0,0,0,47.907,41.241,41.241,0,0,0,21.778,84.282a8.424,8.424,0,0,0-.28,2.156v.927a8.449,8.449,0,0,0,16.727,1.7c1.009.073,2.027.11,3.039.11a41.1,41.1,0,0,0,28.26-11.2A1.4,1.4,0,1,0,67.6,75.926ZM35.589,87.365a5.642,5.642,0,1,1-11.284,0v-.927a5.642,5.642,0,0,1,11.284,0Zm0,0" fill="#474d54"/>
      <path id="Path_1156" data-name="Path 1156" d="M390.775,261.831a1.4,1.4,0,0,0-1.488,1.314,38.19,38.19,0,0,1-8.062,21.25,1.4,1.4,0,0,0,2.212,1.729,40.994,40.994,0,0,0,8.652-22.805A1.4,1.4,0,0,0,390.775,261.831Zm0,0" transform="translate(-309.642 -212.83)" fill="#474d54"/>
      <g id="Group_433" data-name="Group 433" transform="translate(43.271 58.064)">
        <path id="Path_1157" data-name="Path 1157" d="M232.63,313.081h3.863a1.4,1.4,0,0,0,0-2.807H232.63a1.4,1.4,0,0,0,0,2.807Zm0,0" transform="translate(-231.227 -310.273)" fill="#fff"/>
        <path id="Path_1158" data-name="Path 1158" d="M245.917,337.93H232.63a1.4,1.4,0,1,0,0,2.807h13.287a1.4,1.4,0,1,0,0-2.807Zm0,0" transform="translate(-231.227 -332.754)" fill="#fff"/>
        <path id="Path_1159" data-name="Path 1159" d="M245.917,360.914H232.63a1.4,1.4,0,0,0,0,2.807h13.287a1.4,1.4,0,0,0,0-2.807Zm0,0" transform="translate(-231.227 -351.437)" fill="#fff"/>
      </g>
    </g>
    <g id="question" transform="translate(512.398 270.102)">
      <path id="Path_1160" data-name="Path 1160" d="M228.514,392,226,397.027l2.514,5.027a5.027,5.027,0,1,0,0-10.054Z" transform="translate(-215.443 -359.156)" fill="#0a77e8"/>
      <path id="Path_1161" data-name="Path 1161" d="M196,397.027a5.027,5.027,0,0,0,5.027,5.027V392A5.027,5.027,0,0,0,196,397.027Z" transform="translate(-187.957 -359.156)" fill="#0f9af0"/>
      <path id="Path_1162" data-name="Path 1162" d="M201.027,0,196,5.027l5.027,5.027a3.016,3.016,0,0,1,1.949,5.318l-1.949,1.657-3.351,6.651,3.351,6.651h5.027V25.952l3.433-2.919A13.07,13.07,0,0,0,201.027,0Z" transform="translate(-187.957)" fill="#0a77e8"/>
      <g id="Group_434" data-name="Group 434">
        <path id="Path_1163" data-name="Path 1163" d="M196,207.52v9.027h5.027v-13.3Z" transform="translate(-187.957 -186.217)" fill="#0f9af0"/>
        <path id="Path_1164" data-name="Path 1164" d="M100,13.071v1.257h10.054V13.071a3.02,3.02,0,0,1,3.016-3.016V0A13.085,13.085,0,0,0,100,13.071Z" transform="translate(-100)" fill="#0f9af0"/>
      </g>
    </g>
  </g>
</svg>
