<svg xmlns="http://www.w3.org/2000/svg" viewBox="0 0 287.16 263.13"><defs><style>.cls-1{fill:#f6921e;}</style></defs><title>Asset 10</title><g id="Layer_2" data-name="Layer 2"><g id="Layer_1-2" data-name="Layer 1"><path class="cls-1" d="M74.36,102V202.54l69.31,60.59,69.13-60.27V102Zm122.73,93.69-53.41,46.57L90.07,195.41V117.73h107Z"/><path class="cls-1" d="M143.68,0,0,58.25l17.1,7.69v68.63a12.38,12.38,0,0,0-.53,22.2v8.42L8.14,189.27,12.21,185h2.6l.18,5.55h3.15l2.22-8.51,2-.37v7.59H35.73l-6.11-24.08v-9.25a12.4,12.4,0,0,0-2.84-21.76V70.29L73,91.07H218.24l68.92-32.82Z"/><polygon class="cls-1" points="171.77 129.69 171.77 141.88 166.66 141.88 166.66 196.13 155.13 207.72 126.91 207.72 115.38 196.19 115.38 180.51 131.76 180.51 131.76 190.72 136.56 195.53 145.44 195.53 150.29 190.87 150.29 141.88 143.04 141.88 143.04 129.69 171.77 129.69"/></g></g></svg>